<svg xmlns="http://www.w3.org/2000/svg" width="2048" height="1536" viewBox="0 0 2048 1536" version="1.1"><path d="M 710.500 1033.055 C 652.566 1039.038, 603.656 1070.334, 579.675 1116.765 C 567.410 1140.513, 561.559 1170.843, 563.918 1198.445 C 565.854 1221.107, 570.287 1236.838, 580.153 1256.057 C 600.141 1294.996, 637.962 1323.914, 683 1334.692 C 691.591 1336.747, 696.929 1337.299, 712.357 1337.725 C 749.145 1338.740, 785.802 1333.284, 803.769 1324.118 L 808 1321.959 808 1296.980 C 808 1280.993, 807.640 1272, 807 1272 C 806.450 1272, 806 1272.387, 806 1272.859 C 806 1273.332, 804.091 1275.887, 801.758 1278.537 C 792.894 1288.607, 776.184 1296.924, 757.326 1300.651 C 744.805 1303.126, 716.617 1303.142, 705.124 1300.682 C 674.267 1294.074, 656.998 1277.582, 647.868 1246 C 641.235 1223.053, 639.442 1180.192, 644.042 1154.500 C 652.321 1108.259, 678.238 1081.717, 720.723 1075.971 C 731.952 1074.452, 751.108 1075.185, 759.500 1077.454 C 774.654 1081.553, 788.268 1091.743, 792.554 1102.196 C 794.663 1107.339, 795.829 1107.965, 803.338 1107.986 L 808.176 1108 807.623 1104.250 C 807.319 1102.188, 806.769 1089.487, 806.401 1076.026 L 805.732 1051.552 803.020 1049.019 C 796.198 1042.646, 781.372 1037.320, 762.811 1034.575 C 749.744 1032.643, 722.230 1031.843, 710.500 1033.055 M 861.667 1041.667 C 861.300 1042.033, 861 1108.858, 861 1190.167 L 861 1338 895.500 1338 L 930 1338 930 1189.500 L 930 1041 896.167 1041 C 877.558 1041, 862.033 1041.300, 861.667 1041.667 M 1001 1189.432 L 1001 1338 1069.827 1338 L 1138.653 1338 1149.077 1335.062 C 1162.380 1331.312, 1174.514 1326.399, 1189 1318.896 C 1233.146 1296.031, 1261.584 1258.733, 1269.505 1213.308 C 1274.022 1187.409, 1271.644 1155.280, 1263.441 1131.376 C 1249.328 1090.249, 1215.317 1060.662, 1167.599 1048.001 C 1143.786 1041.683, 1143.810 1041.685, 1069.250 1041.256 L 1001 1040.864 1001 1189.432 M 1315.672 1041.661 C 1315.303 1042.031, 1315 1108.858, 1315 1190.167 L 1315 1338 1400 1338 L 1485 1338 1485 1310.500 L 1485 1283 1476.750 1283.014 C 1464.491 1283.034, 1464 1283.269, 1464 1289.117 L 1464 1294 1425.346 1294 L 1386.693 1294 1387.346 1281.843 C 1387.706 1275.157, 1388 1253.107, 1388 1232.843 L 1388 1196 1427.075 1196 L 1466.151 1196 1465.825 1199.250 L 1465.500 1202.500 1475 1202.500 L 1484.500 1202.500 1484.771 1182.250 L 1485.041 1162 1436.234 1162 L 1387.426 1162 1387.824 1124.250 C 1388.042 1103.487, 1388.371 1086.338, 1388.555 1086.139 C 1388.739 1085.940, 1406.239 1086.111, 1427.444 1086.518 L 1466 1087.259 1466 1089.629 C 1466 1091.957, 1466.171 1092, 1475.517 1092 L 1485.034 1092 1484.767 1066.750 L 1484.500 1041.500 1400.422 1041.244 C 1354.180 1041.104, 1316.042 1041.291, 1315.672 1041.661 M 1072 1189.598 L 1072 1303.196 1078.250 1302.505 C 1138.242 1295.870, 1178.892 1265.303, 1190.950 1217.759 C 1195.348 1200.418, 1195.922 1178.353, 1192.451 1160.055 C 1184.728 1119.341, 1157.475 1092.039, 1113.507 1080.969 C 1101.364 1077.911, 1087.846 1076.007, 1078.250 1076.003 L 1072 1076 1072 1189.598" stroke="none" fill="#14846c" fill-rule="evenodd"/><path d="M 658 555 L 658 912 1029.500 912 L 1401 912 1401 555 L 1401 198 1029.500 198 L 658 198 658 555 M 736 308 C 736 326.150, 736.148 341, 736.329 341 C 736.509 341, 740.738 336.163, 745.726 330.250 C 756.556 317.413, 781.343 292.927, 792.500 284.044 C 796.900 280.541, 801.159 277.073, 801.964 276.337 C 803.189 275.218, 797.923 275, 769.714 275 L 736 275 736 308 M 955 276.633 C 893.721 292.797, 838.137 330.369, 799.118 382 C 736.937 464.282, 723.857 575.068, 765.153 669.688 L 769.163 678.875 814.332 678.302 C 839.174 677.986, 859.587 677.665, 859.694 677.587 C 859.800 677.510, 856.940 672.958, 853.338 667.473 C 821.939 619.659, 812.014 558.230, 826.511 501.439 C 847.675 418.533, 918.371 356.629, 1003.974 346.047 C 1009.552 345.358, 1066.182 345, 1169.724 345 L 1327 345 1327 310 L 1327 275 1143.750 275.091 C 987.022 275.169, 959.704 275.392, 955 276.633 M 1190 419.480 C 1190 419.889, 1191.742 422.310, 1193.870 424.861 C 1200.176 432.419, 1210.686 449.106, 1216.436 460.689 C 1231.113 490.253, 1237.986 519.747, 1237.995 553.199 C 1238.005 588.445, 1230.887 618.563, 1215.296 649.242 C 1204.780 669.936, 1192.358 686.577, 1174.369 704.070 C 1140.350 737.154, 1097.573 757.118, 1050.065 762.084 C 1035 763.658, 1007.944 762.693, 993.500 760.064 C 982.890 758.134, 978.126 758.062, 859.250 758.031 L 736 758 736 796.511 L 736 835.021 917.750 834.761 L 1099.500 834.500 1108.500 831.724 C 1140.643 821.808, 1170.369 807.432, 1195.500 789.649 C 1216.666 774.672, 1243.013 749.156, 1258.166 728.961 C 1289.364 687.383, 1307.342 643.481, 1314.660 591 C 1317.321 571.924, 1317.064 534.213, 1314.143 515 C 1309.402 483.820, 1301.810 458.594, 1288.849 430.962 L 1283.707 420 1240.603 419.989 C 1216.897 419.983, 1195.813 419.699, 1193.750 419.358 C 1191.688 419.017, 1190 419.072, 1190 419.480 M 1011.500 425.690 C 1009.850 425.904, 1003.836 427.223, 998.136 428.621 C 973.827 434.583, 952.665 446.947, 935.315 465.325 C 918.159 483.498, 907.542 504.172, 901.842 530.500 C 899.809 539.894, 900.092 568.593, 902.321 579 C 907.890 605.004, 919.643 626.782, 937.948 645.014 C 961.265 668.238, 989.899 680.976, 1022.585 682.664 C 1073.761 685.308, 1121.909 657.185, 1144.425 611.500 C 1154.984 590.076, 1158.511 573.428, 1157.665 549 C 1156.479 514.717, 1144.534 487.344, 1120.095 462.905 C 1100.307 443.117, 1077.513 431.131, 1051.074 426.611 C 1042.399 425.128, 1019.856 424.603, 1011.500 425.690 M 1018.528 481.052 C 1003.147 483.451, 987.768 491.259, 977.091 502.092 C 962.887 516.505, 955.986 533.471, 956.015 553.910 C 956.033 567.230, 957.840 575.041, 963.600 586.708 C 973.336 606.425, 991.662 620.709, 1013.390 625.517 C 1023.979 627.860, 1041.644 627.148, 1051 624.001 C 1063.433 619.820, 1070.932 615.131, 1080.540 605.532 C 1090.178 595.903, 1096.175 586.196, 1099.405 575 C 1107.847 545.730, 1098.066 514.698, 1074.609 496.334 C 1058.755 483.922, 1037.416 478.107, 1018.528 481.052 M 1318.500 772.271 C 1308.364 785.231, 1277.571 816.254, 1264.574 826.599 L 1254.649 834.500 1290.478 834.763 C 1310.184 834.907, 1326.469 834.864, 1326.667 834.667 C 1326.864 834.470, 1326.907 818.048, 1326.763 798.175 L 1326.500 762.042 1318.500 772.271" stroke="none" fill="#14746b" fill-rule="evenodd"/></svg>