<svg xmlns="http://www.w3.org/2000/svg" width="2472" height="1119" viewBox="0 0 2472 1119" version="1.1"><path d="" stroke="none" fill="#081c84" fill-rule="evenodd"/><path d="M 1446 320.500 L 1446 416 1457 416 L 1468 416 1468 320.500 L 1468 225 1457 225 L 1446 225 1446 320.500 M 229 313.500 L 229 400 543.500 400 L 858 400 858 313.500 L 858 227 543.500 227 L 229 227 229 313.500 M 1030 238.993 L 1030 250 1059.494 250 L 1088.988 250 1089.244 332.750 L 1089.500 415.500 1101.250 415.782 L 1113 416.063 1113 333.032 L 1113 250 1143.034 250 L 1173.068 250 1172.784 239.250 L 1172.500 228.500 1101.250 228.243 L 1030 227.987 1030 238.993 M 1198.107 279.097 C 1183.425 281.344, 1172.393 286.774, 1161.563 297.086 C 1153.196 305.052, 1148.887 311.842, 1144.647 323.739 C 1141.663 332.115, 1141.525 333.181, 1141.525 348 C 1141.525 362.819, 1141.663 363.885, 1144.647 372.261 C 1148.943 384.317, 1153.194 390.933, 1162.149 399.506 C 1174.036 410.884, 1187.293 416.392, 1205.662 417.582 C 1233.424 419.381, 1258.686 405.459, 1270.605 381.792 C 1275.935 371.207, 1278 361.772, 1278 348 C 1278 307.938, 1252.506 280.740, 1212.928 278.579 C 1208.293 278.326, 1201.623 278.559, 1198.107 279.097 M 1548.925 278.981 C 1529.855 281.438, 1512.524 291.922, 1502.429 307.107 C 1487.502 329.561, 1486.791 363.217, 1500.752 386.490 C 1506.301 395.740, 1516.631 405.233, 1526.307 409.975 C 1538.319 415.861, 1545.348 417.430, 1559.500 417.380 C 1573.382 417.331, 1580.685 415.722, 1592 410.219 C 1602.498 405.113, 1615.113 392.498, 1620.219 382 C 1626.040 370.033, 1627.439 363.443, 1627.439 348 C 1627.439 332.541, 1626.035 325.941, 1620.206 314 C 1615.943 305.268, 1603.601 292.048, 1595.630 287.677 C 1581.466 279.910, 1565.207 276.883, 1548.925 278.981 M 1828.547 279.053 C 1811.878 281.646, 1800.650 288.870, 1794.792 300.773 C 1791.727 307, 1791.501 308.155, 1791.511 317.524 C 1791.521 326.858, 1791.759 328.067, 1794.793 334.231 C 1796.592 337.886, 1799.513 342.101, 1801.282 343.598 C 1806.799 348.264, 1815.918 351.823, 1828 354.028 C 1857.006 359.320, 1863.260 361.775, 1866.904 369.302 C 1874.599 385.198, 1860.697 399.136, 1838.527 397.753 C 1828.235 397.111, 1821.213 394.185, 1816.144 388.426 C 1812.766 384.589, 1811.537 381.979, 1809.468 374.250 C 1808.891 372.097, 1808.412 372, 1798.293 372 L 1787.721 372 1788.285 376.761 C 1791.360 402.722, 1816.377 420.119, 1847 417.592 C 1867.062 415.937, 1881.517 407.602, 1887.914 394 C 1890.247 389.038, 1890.500 387.324, 1890.500 376.476 C 1890.500 364.898, 1890.378 364.205, 1887.205 357.762 C 1880.459 344.066, 1871.919 340.101, 1837.500 334.690 C 1821.771 332.217, 1814.647 327.762, 1813.317 319.565 C 1811.217 306.622, 1821.688 297.555, 1838.494 297.765 C 1854.196 297.961, 1865.662 305.431, 1868.401 317.250 L 1869.038 320 1880.086 320 C 1890.125 320, 1891.091 319.840, 1890.655 318.250 C 1890.391 317.288, 1889.874 314.728, 1889.507 312.562 C 1887.742 302.154, 1878.434 290.267, 1867.877 284.938 C 1857.002 279.448, 1841.204 277.084, 1828.547 279.053 M 1959.500 278.982 C 1933.602 282.678, 1914.269 300.910, 1907.906 327.637 C 1904.830 340.560, 1905.487 360.101, 1909.382 371.500 C 1919.944 402.413, 1946.625 420.145, 1978.691 417.564 C 2002.663 415.635, 2021.136 404.450, 2029.525 386.785 C 2031.478 382.673, 2033.343 377.664, 2033.669 375.654 L 2034.262 372 2023.268 372 L 2012.275 372 2009.117 378.414 C 2003.812 389.190, 1995.130 394.918, 1980.704 397.161 C 1956.356 400.946, 1935.943 387.074, 1929.508 362.369 C 1928.679 359.185, 1928 355.324, 1928 353.790 L 1928 351 1980.637 351 L 2033.275 351 2032.747 339.250 C 2031.848 319.197, 2026.016 305.660, 2013.168 293.799 C 2006.443 287.591, 1997.914 283.041, 1988.432 280.601 C 1980.754 278.625, 1967.281 277.871, 1959.500 278.982 M 1300.015 326.750 C 1300.027 364.434, 1300.316 374.714, 1301.506 379.760 C 1307.561 405.444, 1330.171 420.655, 1357.220 417.240 C 1372.300 415.337, 1383.682 408.560, 1391.124 397.054 L 1394 392.608 1394 404.304 L 1394 416 1405 416 L 1416 416 1416 348 L 1416 280 1405 280 L 1394 280 1393.983 318.750 C 1393.964 361.029, 1393.410 366.707, 1388.332 376.744 C 1385.033 383.265, 1376.684 391.325, 1370.291 394.161 C 1362.980 397.405, 1350.167 397.820, 1342.826 395.052 C 1336.300 392.592, 1330.073 387.020, 1326.889 380.791 C 1322.253 371.724, 1322.024 369.026, 1322.012 323.250 L 1322 280 1311 280 L 1300 280 1300.015 326.750 M 1649.035 324.250 C 1649.061 357.462, 1649.416 370.442, 1650.458 376.287 C 1654.448 398.669, 1670.082 414.145, 1691.750 417.163 C 1711.988 419.981, 1730.959 412.510, 1740.133 398.110 L 1742.929 393.720 1743.215 404.610 L 1743.500 415.500 1754.500 415.500 L 1765.500 415.500 1765.500 348 L 1765.500 280.500 1754.500 280.500 L 1743.500 280.500 1743 323.500 C 1742.511 365.591, 1742.451 366.622, 1740.177 372.252 C 1733.559 388.642, 1719.696 397.707, 1702.621 396.811 C 1689.545 396.125, 1680.718 390.178, 1675.341 378.434 C 1671.708 370.498, 1671.064 361.662, 1671.031 319.250 L 1671 280 1660 280 L 1649 280 1649.035 324.250 M 1962.500 298.084 C 1954.394 299.297, 1945.157 304.022, 1940.042 309.570 C 1935.745 314.232, 1930.695 323.902, 1929.503 329.750 L 1928.841 333 1969.548 333 L 2010.256 333 2009.583 328.792 C 2008.776 323.748, 2005.846 316.860, 2002.355 311.804 C 1995.358 301.670, 1978.143 295.744, 1962.500 298.084 M 1194.597 300.940 C 1175.593 307.181, 1164 325.012, 1164 348 C 1164 374.323, 1179.065 393.476, 1202.566 397.029 C 1221.743 399.928, 1241.198 390.383, 1249.499 374.002 C 1255.777 361.614, 1257.264 343.934, 1253.122 330.928 C 1248.798 317.348, 1239.168 306.545, 1227.252 301.906 C 1219.037 298.709, 1202.849 298.229, 1194.597 300.940 M 1544.487 300.799 C 1524.835 307.594, 1513.613 324.750, 1513.613 348 C 1513.613 358.713, 1515.432 366.211, 1520.221 375.237 C 1532.048 397.529, 1563.733 404.422, 1585.594 389.458 C 1597.795 381.106, 1605.017 365.867, 1604.985 348.540 C 1604.942 324.814, 1593.195 306.921, 1573.661 300.823 C 1565.946 298.415, 1551.416 298.403, 1544.487 300.799 M 517.585 411.491 C 488.237 415.678, 463.988 428.171, 450.957 445.816 C 441.517 458.599, 436.988 473.545, 437.017 491.815 C 437.052 512.939, 442.151 526.403, 454.899 539.026 C 468.794 552.784, 484.391 559.099, 524 567.004 C 537.475 569.693, 550.510 572.607, 552.967 573.479 C 567.501 578.637, 571.727 586.426, 564.120 594.034 C 560.716 597.437, 555.462 598.987, 547.299 598.994 C 539.157 599.002, 531.849 597.373, 527.810 594.651 C 523.540 591.774, 520 586.425, 520 582.852 L 520 580 476.500 580 C 433.386 580, 433 580.018, 433 582.039 C 433 583.161, 433.484 588.421, 434.076 593.728 C 438.813 636.211, 465.566 658.859, 518.369 665.086 C 531.702 666.659, 568.656 665.740, 580.500 663.542 C 611.665 657.759, 633.699 643.604, 644.823 622.223 C 650.396 611.512, 652.999 601.173, 653.704 586.952 C 655.133 558.098, 646.037 538.286, 624.710 523.803 C 611.951 515.138, 596.343 509.868, 564.721 503.547 C 532.274 497.061, 525.285 494.510, 522.918 488.285 C 521.417 484.336, 524.323 479.514, 529.843 476.794 C 533.709 474.890, 536.114 474.500, 544 474.500 C 552.372 474.500, 554.175 474.831, 559.180 477.289 C 563.723 479.520, 565.274 480.934, 566.930 484.355 C 568.068 486.707, 569 489.389, 569 490.316 C 569 491.867, 572.235 492, 610.101 492 L 651.203 492 650.532 484.750 C 647.058 447.192, 622.064 422.360, 578.260 412.948 C 565.370 410.178, 532.347 409.386, 517.585 411.491 M 1337 573 L 1337 668 1348.500 668 L 1360 668 1360 627.710 C 1360 594.648, 1360.277 586.351, 1361.542 581.460 C 1364.533 569.903, 1372.621 559.800, 1382.784 554.927 C 1389.266 551.819, 1402.731 551.086, 1409.860 553.453 C 1420.676 557.046, 1428.641 567.836, 1430.933 582 C 1431.541 585.757, 1431.988 605.272, 1431.992 628.250 L 1432 668 1443 668 L 1454 668 1453.983 623.250 C 1453.963 573.265, 1453.619 569.770, 1447.494 557.322 C 1439.824 541.735, 1426.170 532.752, 1407.985 531.328 C 1388.865 529.831, 1371.467 537.390, 1362.832 550.946 L 1360 555.392 1360 516.696 L 1360 478 1348.500 478 L 1337 478 1337 573 M 1775 573 L 1775 668 1786 668 L 1797 668 1797 573 L 1797 478 1786 478 L 1775 478 1775 573 M 2077.393 479.410 C 2057.368 484.270, 2047.025 499.873, 2047.006 525.250 L 2047 533 2033 533 L 2019 533 2019 543 L 2019 553 2033 553 L 2047 553 2047 610.500 L 2047 668 2058.500 668 L 2070 668 2070 610.500 L 2070 553 2090.500 553 L 2111 553 2111 543 L 2111 533 2090.500 533 L 2070 533 2070.022 523.250 C 2070.047 512.081, 2071.715 507.100, 2076.889 502.747 C 2081.389 498.960, 2085.861 498.012, 2099.250 498.006 L 2111 498 2111 488 L 2111 478 2096.750 478.085 C 2088.912 478.132, 2080.202 478.728, 2077.393 479.410 M 1090.660 479.986 C 1070.070 483.703, 1053.533 494.725, 1046.621 509.335 C 1038.321 526.881, 1042.342 548.902, 1056.124 561.374 C 1065.917 570.236, 1074.539 573.853, 1112.500 585.020 C 1128.575 589.749, 1136.772 593.389, 1142.608 598.392 C 1153.713 607.910, 1153.820 626.959, 1142.830 637.930 C 1132.391 648.352, 1105.404 652.196, 1087.855 645.761 C 1071.586 639.796, 1063.819 629.649, 1059.527 608.750 L 1058.962 606 1047.352 606 L 1035.742 606 1036.430 612.087 C 1040.084 644.382, 1063.748 666.721, 1097.625 669.854 C 1125.252 672.409, 1149.220 665.163, 1163.444 649.956 C 1180.097 632.153, 1180.194 601.526, 1163.650 584.623 C 1154.216 574.984, 1142.636 569.885, 1111.245 561.549 C 1087.787 555.320, 1080.488 552.318, 1073.658 546.091 C 1063.688 537, 1063.829 520.680, 1073.962 510.869 C 1088.376 496.915, 1121.377 496.978, 1137.336 510.990 C 1142.139 515.207, 1145.431 520.904, 1147.600 528.750 L 1149.328 535 1160.664 535 L 1172 535 1172 532.394 C 1172 530.961, 1171.290 527.024, 1170.423 523.644 C 1165.112 502.958, 1149.307 487.421, 1127.500 481.447 C 1120.561 479.546, 1098.043 478.653, 1090.660 479.986 M 1242.363 532.024 C 1217.562 536.501, 1198.902 554.441, 1191.881 580.558 C 1188.901 591.645, 1188.883 610.291, 1191.842 621.287 C 1198.202 644.925, 1214.557 662.064, 1236.478 668.063 C 1251.672 672.221, 1274.359 670.380, 1287.169 663.949 C 1301.837 656.586, 1313.303 641.849, 1315.723 627.250 L 1316.262 624 1305.239 624 C 1294.221 624, 1294.217 624.001, 1293.569 626.583 C 1291.710 633.988, 1282.227 643.559, 1273.147 647.194 C 1268.396 649.096, 1265.595 649.458, 1255.500 649.477 C 1244.428 649.498, 1243.036 649.284, 1237.500 646.700 C 1221.733 639.344, 1212.744 622.760, 1212.710 600.969 C 1212.668 573.502, 1225.651 555.568, 1248.292 551.816 C 1256.997 550.373, 1267.278 551.962, 1275.672 556.045 C 1283.481 559.845, 1291.582 568.409, 1293.243 574.620 L 1294.415 579 1305.601 579 L 1316.787 579 1315.941 575.250 C 1315.476 573.188, 1314.386 569.494, 1313.519 567.043 C 1308.243 552.127, 1292.173 538.357, 1274.430 533.550 C 1267.233 531.600, 1249.408 530.752, 1242.363 532.024 M 1528.500 531.557 C 1527.400 531.811, 1524.025 532.501, 1521 533.089 C 1517.975 533.677, 1511.332 536.161, 1506.238 538.607 C 1493.343 544.801, 1483.996 554.121, 1477.565 567.196 C 1471.386 579.757, 1469.595 588.916, 1470.268 604.500 C 1471.144 624.754, 1476.688 637.888, 1489.915 651.044 C 1503.183 664.240, 1518.464 670.267, 1538.449 670.186 C 1559.232 670.102, 1573.922 664.224, 1587.509 650.557 C 1600.935 637.052, 1607.016 621.603, 1606.983 601.090 C 1606.960 587.162, 1605.038 578.515, 1599.451 567.196 C 1588.591 545.193, 1567.821 532.391, 1541.500 531.476 C 1535.450 531.266, 1529.600 531.302, 1528.500 531.557 M 1678.500 531.646 C 1655.825 535.298, 1638.073 547.902, 1628.612 567.067 C 1622.963 578.512, 1621.040 587.124, 1621.017 601.090 C 1620.984 621.663, 1627.054 637.136, 1640.402 650.504 C 1654.141 664.263, 1669.107 670.268, 1689.449 670.186 C 1709.880 670.103, 1724.843 664.214, 1738.085 651.044 C 1751.465 637.736, 1756.894 624.731, 1757.722 604 C 1758.140 593.530, 1757.877 590.061, 1756.103 582.637 C 1750.348 558.565, 1734.227 541.381, 1710.500 534.028 C 1703.544 531.872, 1685.457 530.526, 1678.500 531.646 M 1935.500 531.646 C 1909.559 535.824, 1890.002 551.898, 1881.681 575.882 C 1879.157 583.157, 1878.617 586.468, 1878.217 597.125 C 1877.636 612.619, 1879.366 621.728, 1885.222 634 C 1888.485 640.840, 1890.862 644.076, 1897.389 650.566 C 1909.339 662.450, 1921.431 668.233, 1937.885 669.936 C 1960.600 672.286, 1980.281 665.784, 1995.069 651.044 C 2008.161 637.994, 2013.920 624.513, 2014.762 604.942 C 2016.268 569.912, 1998.823 543.735, 1967.500 534.028 C 1960.544 531.872, 1942.457 530.526, 1935.500 531.646 M 1529 552.091 C 1521.208 553.602, 1510.617 559.522, 1505.431 565.266 C 1499.983 571.300, 1495.561 579.981, 1493.927 587.849 C 1492.239 595.983, 1493.200 613.260, 1495.725 620.179 C 1502.671 639.205, 1518.205 650, 1538.637 650 C 1560.471 650, 1576.863 637.222, 1582.580 615.744 C 1584.420 608.833, 1584.382 592.887, 1582.508 585.693 C 1576.229 561.584, 1553.538 547.335, 1529 552.091 M 1680 552.091 C 1672.208 553.602, 1661.617 559.522, 1656.431 565.266 C 1650.983 571.300, 1646.561 579.981, 1644.927 587.849 C 1643.239 595.983, 1644.200 613.260, 1646.725 620.179 C 1653.671 639.205, 1669.205 650, 1689.637 650 C 1716.798 650, 1735 630.380, 1735 601.105 C 1735 590.144, 1733.224 582.020, 1729.217 574.656 C 1719.764 557.281, 1699.992 548.216, 1680 552.091 M 1937.500 552.039 C 1920.642 555.495, 1908.495 566.442, 1903.140 583.005 C 1901.113 589.273, 1900.154 600.737, 1901.056 607.917 C 1904.331 634.003, 1921.659 650, 1946.637 650 C 1973.843 650, 1992.027 630.168, 1991.988 600.540 C 1991.969 586.062, 1987.907 574.562, 1979.517 565.230 C 1970.040 554.689, 1952.079 549.050, 1937.500 552.039 M 442 799.500 L 442 922 543.500 922 L 645 922 645 884 L 645 846 587.500 846 L 530 846 530 835.500 L 530 825 587.500 825 L 645 825 645 798 L 645 771 587.500 771 L 530 771 530 760 L 530 749 587.500 749 L 645 749 645 713 L 645 677 543.500 677 L 442 677 442 799.500 M 1996 747 L 1996 763 2008.500 763 L 2021 763 2021 747 L 2021 731 2008.500 731 L 1996 731 1996 747 M 1046 827.500 L 1046 921 1106.500 921 L 1167 921 1167 910.500 L 1167 900 1118.500 900 L 1070 900 1070 867.500 L 1070 835 1108 835 L 1146 835 1146 824.500 L 1146 814 1108 814 L 1070 814 1070 784.500 L 1070 755 1117 755 L 1164 755 1164 744.500 L 1164 734 1105 734 L 1046 734 1046 827.500 M 1227 785.503 C 1215.726 788.032, 1206.485 793.321, 1197.463 802.406 C 1188.298 811.637, 1184.374 818.351, 1180.444 831.527 C 1178.186 839.099, 1177.759 842.451, 1177.714 853 C 1177.650 867.743, 1179.322 875.618, 1185.039 887.500 C 1196.180 910.653, 1216.539 923.029, 1243.410 922.983 C 1256.515 922.960, 1265.552 920.996, 1275.803 915.943 C 1289.060 909.409, 1298.469 898.488, 1302.407 885.068 C 1304.892 876.598, 1305.348 877, 1293.250 877.004 L 1282.500 877.007 1280.673 881.450 C 1274.926 895.426, 1258.140 904.143, 1239.698 902.729 C 1220.756 901.276, 1207.612 889.719, 1202.475 870 C 1200.237 861.409, 1200.237 845.591, 1202.475 837 C 1206.187 822.752, 1215.360 811.369, 1226.753 806.874 C 1234.812 803.694, 1250.881 803.622, 1259.275 806.729 C 1270.349 810.827, 1280.035 820.338, 1281.593 828.644 L 1282.223 832 1293.523 832 L 1304.823 832 1303.418 825.981 C 1299.284 808.257, 1285.043 793.682, 1265.715 787.391 C 1255.470 784.057, 1237.378 783.174, 1227 785.503 M 1369.500 785.419 C 1354.589 788.864, 1343.865 794.975, 1334.176 805.550 C 1322.722 818.049, 1317 834.024, 1317 853.500 C 1317 874.723, 1322.926 889.928, 1336.537 903.628 C 1350.573 917.755, 1366.707 923.660, 1388.839 922.772 C 1398.177 922.397, 1402.188 921.735, 1408.976 919.445 C 1419.283 915.968, 1430.122 908.920, 1437.028 901.203 C 1443.569 893.894, 1450.480 879.838, 1452.472 869.792 C 1455.862 852.692, 1453.763 835.260, 1446.538 820.500 C 1438.722 804.534, 1425.814 793.219, 1408.976 787.572 C 1401.866 785.188, 1398.485 784.673, 1388 784.381 C 1379.719 784.151, 1373.475 784.501, 1369.500 785.419 M 1526.760 785.558 C 1515.946 788.179, 1506.730 794.717, 1500.838 803.946 L 1498 808.392 1498 797.196 L 1498 786 1486.500 786 L 1475 786 1475 853.500 L 1475 921 1486.500 921 L 1498 921 1498 880.089 C 1498 842.827, 1498.168 838.638, 1499.884 833.125 C 1502.396 825.054, 1505.915 819.255, 1511.330 814.264 C 1529.142 797.845, 1556.075 802.178, 1565.403 822.963 C 1569.356 831.773, 1569.959 839.510, 1569.980 881.750 L 1570 921 1581.061 921 L 1592.123 921 1591.808 873.250 L 1591.492 825.500 1588.706 817.609 C 1582.593 800.297, 1571.665 789.753, 1555.465 785.533 C 1548.282 783.662, 1534.533 783.674, 1526.760 785.558 M 1665.500 785.480 C 1641.058 790.861, 1623.573 807.241, 1615.842 832 C 1613.817 838.485, 1613.510 841.462, 1613.575 854 C 1613.641 866.873, 1613.947 869.400, 1616.296 876.521 C 1623.199 897.444, 1637.583 912.254, 1657.882 919.336 C 1665.002 921.821, 1668.527 922.421, 1678.161 922.792 C 1692.604 923.347, 1701.983 921.512, 1714 915.778 C 1720.852 912.509, 1724.060 910.150, 1730.547 903.611 C 1744.532 889.514, 1750.170 875.117, 1750.170 853.500 C 1750.170 831.883, 1744.532 817.486, 1730.547 803.389 C 1724.079 796.869, 1720.832 794.479, 1714 791.205 C 1709.325 788.965, 1702.031 786.427, 1697.792 785.566 C 1688.579 783.694, 1673.791 783.655, 1665.500 785.480 M 1818.856 786.316 C 1808.352 789.897, 1800.487 796.404, 1795.669 805.500 C 1794.132 808.402, 1794.079 808.133, 1794.040 797.250 L 1794 786 1783 786 L 1772 786 1772 853.500 L 1772 921 1783 921 L 1794 921 1794.024 878.250 C 1794.038 853.695, 1794.470 833.674, 1795.039 831.209 C 1798.761 815.071, 1810.127 805.205, 1826.127 804.225 C 1842.957 803.193, 1853.296 811.433, 1857.489 829.219 C 1858.675 834.247, 1858.973 844.029, 1858.985 878.250 L 1859 921 1870 921 L 1881 921 1881.017 879.750 C 1881.036 835.979, 1881.562 829.698, 1885.932 821.133 C 1888.885 815.345, 1894.426 810.162, 1900.914 807.120 C 1905.723 804.864, 1907.833 804.500, 1916.080 804.500 C 1925.004 804.500, 1925.997 804.708, 1930.580 807.537 C 1933.526 809.356, 1936.994 812.766, 1939.225 816.037 C 1945.730 825.576, 1946 828.010, 1946 877.210 L 1946 921 1957.500 921 L 1969 921 1968.969 877.250 C 1968.952 853.188, 1968.519 830.275, 1968.007 826.333 C 1965.490 806.959, 1955.477 792.753, 1940.252 786.954 C 1933.121 784.238, 1918.859 783.264, 1910.781 784.942 C 1898.591 787.473, 1885.136 796.981, 1880.240 806.524 L 1878.244 810.415 1875.722 805.438 C 1872.507 799.094, 1864.427 791.519, 1857.720 788.562 C 1845.961 783.378, 1830.157 782.464, 1818.856 786.316 M 2092.490 785.016 C 2060.189 791.439, 2039.417 820.835, 2041.310 857.448 C 2042.360 877.761, 2048.467 892.544, 2060.964 905.028 C 2073.558 917.608, 2087.339 922.947, 2107.303 922.983 C 2135.297 923.032, 2157.499 909.493, 2164.915 887.848 C 2165.923 884.907, 2167.038 881.263, 2167.393 879.750 L 2168.038 877 2157.218 877 L 2146.399 877 2144.100 881.732 C 2140.684 888.762, 2136.824 893.124, 2130.849 896.708 C 2117.802 904.532, 2099.842 905.081, 2086.137 898.074 C 2056.580 882.964, 2056.928 823.664, 2086.662 808.686 C 2108.133 797.870, 2137.676 807.241, 2144.730 827.103 L 2146.469 832 2157.235 832 C 2165.776 832, 2168 831.712, 2168 830.605 C 2168 827.016, 2163.649 815.768, 2160.195 810.428 C 2152.417 798.404, 2137.817 788.755, 2122.500 785.515 C 2115.087 783.947, 2099.196 783.683, 2092.490 785.016 M 2214.773 785.555 C 2202.399 788.554, 2191.189 796.827, 2186.493 806.424 C 2183.301 812.950, 2182.296 822.744, 2183.955 831.175 C 2185.502 839.038, 2187.776 843.483, 2192.665 848.198 C 2199.586 854.871, 2206.563 857.198, 2235.497 862.482 C 2250.548 865.230, 2256.608 868.789, 2259.606 876.639 C 2267.272 896.711, 2239.206 911.142, 2215.274 899.433 C 2208.725 896.229, 2204.519 890.836, 2202.275 882.766 L 2200.672 877 2190.336 877 L 2180 877 2180.024 879.750 C 2180.147 893.529, 2190.395 909.281, 2203.828 916.340 C 2212.869 921.091, 2221.279 922.970, 2233.500 922.970 C 2255.924 922.970, 2272.633 914.543, 2280.039 899.500 C 2282.267 894.974, 2282.495 893.315, 2282.452 882 C 2282.398 867.760, 2281.037 863.367, 2274.404 856.025 C 2267.092 847.932, 2260.389 845.379, 2235.349 841.154 C 2216.379 837.952, 2211.210 835.904, 2207.200 830 C 2205.221 827.086, 2204.889 825.553, 2205.218 820.848 C 2205.957 810.286, 2213.794 804.098, 2227.553 803.215 C 2243.014 802.223, 2256.744 809.872, 2259.931 821.253 L 2261.260 826 2272.105 826 L 2282.950 826 2282.372 822.750 C 2281.118 815.697, 2279.707 811.296, 2277.237 806.726 C 2271.888 796.832, 2259.326 788.237, 2246.122 785.438 C 2237.807 783.676, 2222.286 783.734, 2214.773 785.555 M 1997 853.500 L 1997 921 2008.500 921 L 2020 921 2020 853.500 L 2020 786 2008.500 786 L 1997 786 1997 853.500 M 1373.105 805.583 C 1352.907 811.014, 1339.822 829.569, 1339.716 852.927 C 1339.670 863.184, 1341.202 870.377, 1345.187 878.619 C 1358.273 905.682, 1397.110 911.494, 1417.909 889.503 C 1426.852 880.047, 1431 868.697, 1431 853.684 C 1431 837.760, 1425.961 824.821, 1416.332 816.021 C 1404.714 805.402, 1388.412 801.466, 1373.105 805.583 M 1669 805.540 C 1647.746 811.471, 1634.975 831.359, 1636.279 856.494 C 1637.131 872.930, 1642.581 884.563, 1653.656 893.585 C 1669.221 906.266, 1694.763 905.928, 1711.066 892.827 C 1723.054 883.193, 1729.856 862.971, 1727.095 845.173 C 1724.142 826.139, 1714.264 813.153, 1697.950 806.856 C 1690.714 804.063, 1676.592 803.421, 1669 805.540" stroke="none" fill="#041c84" fill-rule="evenodd"/></svg>