<?xml version="1.0" standalone="no"?>
<!DOCTYPE svg PUBLIC "-//W3C//DTD SVG 20010904//EN"
 "http://www.w3.org/TR/2001/REC-SVG-20010904/DTD/svg10.dtd">
<svg version="1.0" xmlns="http://www.w3.org/2000/svg"
 width="300.000000pt" height="327.000000pt" viewBox="0 0 300.000000 327.000000"
 preserveAspectRatio="xMidYMid meet">
<metadata>
Created by potrace 1.10, written by Peter Selinger 2001-2011
</metadata>
<g transform="translate(0.000000,327.000000) scale(0.100000,-0.100000)"
fill="#000000" stroke="none">
<path d="M1448 2603 l-918 -3 0 -250 0 -250 920 0 920 0 0 255 c0 140 -1 254
-2 253 -2 -2 -416 -4 -920 -5z m872 -48 c17 -21 16 -395 -1 -406 -8 -4 -124
-8 -259 -8 -666 0 -948 0 -1194 -1 -191 0 -272 3 -282 11 -12 9 -14 50 -14
203 1 121 5 195 12 204 16 19 1722 17 1738 -3z"/>
<path d="M1332 2055 c-72 -20 -104 -38 -140 -79 -69 -79 -67 -225 4 -288 32
-28 104 -56 194 -73 119 -24 148 -41 129 -77 -20 -37 -139 -17 -139 23 0 5
-55 9 -125 9 -123 0 -125 0 -125 -22 0 -74 51 -153 122 -189 60 -31 183 -44
280 -31 161 23 238 100 238 239 0 121 -57 180 -209 215 -136 32 -166 43 -169
63 -5 24 15 35 65 35 39 0 73 -19 73 -41 0 -5 53 -9 120 -9 l120 0 -6 28 c-20
93 -62 145 -147 182 -64 29 -210 36 -285 15z m288 -55 c46 -26 90 -80 90 -111
0 -17 -9 -19 -77 -19 -66 0 -80 3 -101 23 -18 17 -35 22 -78 22 -47 0 -58 -4
-74 -25 -11 -14 -20 -35 -20 -47 0 -23 40 -61 74 -68 164 -36 204 -49 242 -80
45 -37 67 -91 60 -148 -16 -125 -101 -182 -277 -186 -135 -2 -230 33 -264 99
-24 46 -20 70 13 71 92 4 145 -4 179 -27 59 -40 134 -28 163 26 20 38 -27 96
-88 106 -81 15 -190 47 -212 63 -69 50 -87 129 -50 215 35 82 116 116 270 113
91 -2 111 -6 150 -27z"/>
<path d="M1157 933 l3 -358 295 -3 295 -2 0 112 0 113 -170 -3 -170 -3 0 35 0
36 170 0 170 0 0 78 0 77 -170 -3 -170 -3 0 35 0 36 170 0 170 0 0 105 0 105
-297 0 -298 0 2 -357z m547 301 c10 -26 7 -102 -4 -109 -6 -4 -71 -7 -144 -8
-114 -2 -137 -5 -154 -20 -40 -36 -29 -89 23 -114 11 -6 72 -9 135 -8 63 1
123 -2 132 -6 16 -9 19 -51 4 -66 -4 -4 -68 -8 -143 -9 -117 -2 -139 -5 -154
-21 -34 -35 -28 -78 14 -103 28 -18 48 -20 153 -19 67 1 125 -1 131 -4 11 -7
16 -91 8 -118 -6 -16 -26 -18 -250 -19 -157 0 -246 3 -250 10 -10 17 -14 593
-4 613 9 15 32 17 253 17 213 0 245 -2 250 -16z"/>
</g>
</svg>
