<?xml version="1.0" encoding="UTF-8" standalone="no"?>
<!-- Created with Inkscape (http://www.inkscape.org/) -->
<svg
   xmlns:dc="http://purl.org/dc/elements/1.1/"
   xmlns:cc="http://creativecommons.org/ns#"
   xmlns:rdf="http://www.w3.org/1999/02/22-rdf-syntax-ns#"
   xmlns:svg="http://www.w3.org/2000/svg"
   xmlns="http://www.w3.org/2000/svg"
   xmlns:sodipodi="http://sodipodi.sourceforge.net/DTD/sodipodi-0.dtd"
   xmlns:inkscape="http://www.inkscape.org/namespaces/inkscape"
   width="200"
   height="200"
   id="svg8723"
   sodipodi:version="0.32"
   inkscape:version="0.46"
   version="1.0"
   sodipodi:docname="Université Toulouse 1.svg"
   inkscape:output_extension="org.inkscape.output.svg.inkscape">
  <defs
     id="defs8725">
    <clipPath
       id="clipPath5780"
       clipPathUnits="userSpaceOnUse">
      <path
         id="path5782"
         d="M 0,0 L 1303.937,0 L 1303.937,850.394 L 0,850.394 L 0,0 z" />
    </clipPath>
    <clipPath
       id="clipPath5806"
       clipPathUnits="userSpaceOnUse">
      <path
         id="path5808"
         d="M 0,0 L 1303.937,0 L 1303.937,850.394 L 0,850.394 L 0,0 z" />
    </clipPath>
    <clipPath
       id="clipPath5836"
       clipPathUnits="userSpaceOnUse">
      <path
         id="path5838"
         d="M 0,0 L 1303.937,0 L 1303.937,850.394 L 0,850.394 L 0,0 z" />
    </clipPath>
    <clipPath
       id="clipPath5856"
       clipPathUnits="userSpaceOnUse">
      <path
         id="path5858"
         d="M 0,0 L 1303.937,0 L 1303.937,850.394 L 0,850.394 L 0,0 z" />
    </clipPath>
    <clipPath
       id="clipPath5884"
       clipPathUnits="userSpaceOnUse">
      <path
         id="path5886"
         d="M 0,0 L 1303.937,0 L 1303.937,850.394 L 0,850.394 L 0,0 z" />
    </clipPath>
    <clipPath
       id="clipPath5900"
       clipPathUnits="userSpaceOnUse">
      <path
         id="path5902"
         d="M 0,0 L 1303.937,0 L 1303.937,850.394 L 0,850.394 L 0,0 z" />
    </clipPath>
    <clipPath
       id="clipPath5918"
       clipPathUnits="userSpaceOnUse">
      <path
         id="path5920"
         d="M 0,0 L 1303.937,0 L 1303.937,850.394 L 0,850.394 L 0,0 z" />
    </clipPath>
    <clipPath
       id="clipPath5938"
       clipPathUnits="userSpaceOnUse">
      <path
         id="path5940"
         d="M 0,0 L 1303.937,0 L 1303.937,850.394 L 0,850.394 L 0,0 z" />
    </clipPath>
    <clipPath
       id="clipPath5986"
       clipPathUnits="userSpaceOnUse">
      <path
         id="path5988"
         d="M 0,0 L 1303.937,0 L 1303.937,850.394 L 0,850.394 L 0,0 z" />
    </clipPath>
    <clipPath
       id="clipPath6014"
       clipPathUnits="userSpaceOnUse">
      <path
         id="path6016"
         d="M 0,0 L 1303.937,0 L 1303.937,850.394 L 0,850.394 L 0,0 z" />
    </clipPath>
    <clipPath
       id="clipPath6034"
       clipPathUnits="userSpaceOnUse">
      <path
         id="path6036"
         d="M 0,0 L 1303.937,0 L 1303.937,850.394 L 0,850.394 L 0,0 z" />
    </clipPath>
    <clipPath
       id="clipPath6050"
       clipPathUnits="userSpaceOnUse">
      <path
         id="path6052"
         d="M 0,0 L 1303.937,0 L 1303.937,850.394 L 0,850.394 L 0,0 z" />
    </clipPath>
    <clipPath
       id="clipPath6066"
       clipPathUnits="userSpaceOnUse">
      <path
         id="path6068"
         d="M 0,0 L 1303.937,0 L 1303.937,850.394 L 0,850.394 L 0,0 z" />
    </clipPath>
    <clipPath
       id="clipPath6094"
       clipPathUnits="userSpaceOnUse">
      <path
         id="path6096"
         d="M 0,0 L 1303.937,0 L 1303.937,850.394 L 0,850.394 L 0,0 z" />
    </clipPath>
    <clipPath
       id="clipPath6126"
       clipPathUnits="userSpaceOnUse">
      <path
         id="path6128"
         d="M 0,0 L 1303.937,0 L 1303.937,850.394 L 0,850.394 L 0,0 z" />
    </clipPath>
    <clipPath
       id="clipPath6142"
       clipPathUnits="userSpaceOnUse">
      <path
         id="path6144"
         d="M 0,0 L 1303.937,0 L 1303.937,850.394 L 0,850.394 L 0,0 z" />
    </clipPath>
    <clipPath
       id="clipPath6162"
       clipPathUnits="userSpaceOnUse">
      <path
         id="path6164"
         d="M 0,0 L 1303.937,0 L 1303.937,850.394 L 0,850.394 L 0,0 z" />
    </clipPath>
    <clipPath
       id="clipPath6190"
       clipPathUnits="userSpaceOnUse">
      <path
         id="path6192"
         d="M 0,0 L 1303.937,0 L 1303.937,850.394 L 0,850.394 L 0,0 z" />
    </clipPath>
    <inkscape:perspective
       sodipodi:type="inkscape:persp3d"
       inkscape:vp_x="0 : 526.18109 : 1"
       inkscape:vp_y="0 : 1000 : 0"
       inkscape:vp_z="744.09448 : 526.18109 : 1"
       inkscape:persp3d-origin="372.04724 : 350.78739 : 1"
       id="perspective8731" />
  </defs>
  <sodipodi:namedview
     id="base"
     pagecolor="#ffffff"
     bordercolor="#666666"
     borderopacity="1.0"
     inkscape:pageopacity="0.0"
     inkscape:pageshadow="2"
     inkscape:zoom="2.5445899"
     inkscape:cx="99.62375"
     inkscape:cy="100.37687"
     inkscape:document-units="px"
     inkscape:current-layer="layer1"
     showgrid="false"
     inkscape:window-width="1024"
     inkscape:window-height="712"
     inkscape:window-x="-4"
     inkscape:window-y="-4" />
  <metadata
     id="metadata8728">
    <rdf:RDF>
      <cc:Work
         rdf:about="">
        <dc:format>image/svg+xml</dc:format>
        <dc:type
           rdf:resource="http://purl.org/dc/dcmitype/StillImage" />
      </cc:Work>
    </rdf:RDF>
  </metadata>
  <g
     inkscape:label="Calque 1"
     inkscape:groupmode="layer"
     id="layer1"
     transform="translate(-223.23339,-287.02477)">
    <path
       id="path5772"
       style="fill:#ffffff;fill-opacity:1;fill-rule:nonzero;stroke:none"
       d="M 422.48089,486.27102 L 223.23339,486.27102 L 223.23339,287.02477 L 422.48089,287.02477 L 422.48089,486.27102 z" />
    <path
       id="path5774"
       style="fill:#b4131d;fill-opacity:1;fill-rule:nonzero;stroke:none"
       d="M 414.81714,478.60727 L 230.89589,478.60727 L 230.89589,294.68727 L 414.81714,294.68727 L 414.81714,478.60727 z" />
    <g
       transform="matrix(1.25,0,0,-1.25,-733.10536,1173.1023)"
       id="g5776">
      <g
         clip-path="url(#clipPath5780)"
         id="g5778">
        <g
           transform="translate(791.5127,605.1787)"
           id="g5784">
          <path
             id="path5786"
             style="fill:#ffffff;fill-opacity:1;fill-rule:nonzero;stroke:none"
             d="M 0,0 C 0,-3.5 -2.518,-5.69 -5.833,-5.69 C -9.148,-5.69 -11.666,-3.5 -11.666,0 L -11.666,9.169 L -9.087,9.169 L -9.087,0.082 C -9.087,-1.352 -8.309,-3.234 -5.833,-3.234 C -3.356,-3.234 -2.579,-1.352 -2.579,0.082 L -2.579,9.169 L 0,9.169 L 0,0 z" />
        </g>
      </g>
    </g>
    <g
       transform="matrix(1.25,0,0,-1.25,262.27518,405.16714)"
       id="g5788">
      <path
         id="path5790"
         style="fill:#ffffff;fill-opacity:1;fill-rule:nonzero;stroke:none"
         d="M 0,0 L 3.417,0 L 10.438,-10.766 L 10.479,-10.807 L 10.438,-10.807 L 10.479,-10.766 L 10.479,0 L 13.058,0 L 13.058,-14.49 L 9.784,-14.49 L 2.619,-3.378 L 2.579,-3.378 L 2.579,-14.49 L 0,-14.49 L 0,0 z" />
    </g>
    <path
       id="path5792"
       style="fill:#ffffff;fill-opacity:1;fill-rule:nonzero;stroke:none"
       d="M 284.58589,405.16727 L 287.80964,405.16727 L 287.80964,423.27977 L 284.58589,423.27977 L 284.58589,405.16727 z" />
    <g
       transform="matrix(1.25,0,0,-1.25,291.69938,405.16714)"
       id="g5794">
      <path
         id="path5796"
         style="fill:#ffffff;fill-opacity:1;fill-rule:nonzero;stroke:none"
         d="M 0,0 L 2.968,0 L 6.918,-10.95 L 10.992,0 L 13.775,0 L 7.921,-14.49 L 5.69,-14.49 L 0,0 z" />
    </g>
    <g
       transform="matrix(1.25,0,0,-1.25,312.88568,405.16714)"
       id="g5798">
      <path
         id="path5800"
         style="fill:#ffffff;fill-opacity:1;fill-rule:nonzero;stroke:none"
         d="M 0,0 L 9.6,0 L 9.6,-2.334 L 2.579,-2.334 L 2.579,-5.895 L 9.23,-5.895 L 9.23,-8.228 L 2.579,-8.228 L 2.579,-12.158 L 9.967,-12.158 L 9.967,-14.49 L 0,-14.49 L 0,0 z" />
    </g>
    <g
       transform="matrix(1.25,0,0,-1.25,-733.10536,1173.1023)"
       id="g5802">
      <g
         clip-path="url(#clipPath5806)"
         id="g5804">
        <g
           transform="translate(850.918,614.3481)"
           id="g5810">
          <path
             id="path5812"
             style="fill:#ffffff;fill-opacity:1;fill-rule:nonzero;stroke:none"
             d="M 0,0 L 5.034,0 C 7.818,0 10.437,-0.901 10.437,-4.155 C 10.437,-6.243 9.23,-7.777 7.08,-8.084 L 10.929,-14.492 L 7.818,-14.492 L 4.461,-8.351 L 2.577,-8.351 L 2.577,-14.492 L 0,-14.492 L 0,0 z M 4.583,-6.14 C 6.037,-6.14 7.735,-6.017 7.735,-4.135 C 7.735,-2.416 6.14,-2.211 4.808,-2.211 L 2.577,-2.211 L 2.577,-6.14 L 4.583,-6.14 z" />
        </g>
        <g
           transform="translate(872.5322,611.2374)"
           id="g5814">
          <path
             id="path5816"
             style="fill:#ffffff;fill-opacity:1;fill-rule:nonzero;stroke:none"
             d="M 0,0 C -0.552,0.777 -1.535,1.145 -2.536,1.145 C -3.724,1.145 -4.911,0.614 -4.911,-0.716 C -4.911,-3.623 1.965,-1.965 1.965,-7.123 C 1.965,-10.234 -0.491,-11.749 -3.336,-11.749 C -5.137,-11.749 -6.897,-11.196 -8.084,-9.784 L -6.14,-7.901 C -5.505,-8.863 -4.42,-9.415 -3.274,-9.415 C -2.087,-9.415 -0.737,-8.76 -0.737,-7.43 C -0.737,-4.257 -7.614,-6.079 -7.614,-0.901 C -7.614,2.087 -4.953,3.479 -2.271,3.479 C -0.758,3.479 0.758,3.049 1.884,1.985 L 0,0 z" />
        </g>
      </g>
    </g>
    <path
       id="path5818"
       style="fill:#ffffff;fill-opacity:1;fill-rule:nonzero;stroke:none"
       d="M 365.31464,405.16727 L 368.53714,405.16727 L 368.53714,423.27977 L 365.31464,423.27977 L 365.31464,405.16727 z" />
    <g
       transform="matrix(1.25,0,0,-1.25,378.23498,408.08402)"
       id="g5820">
      <path
         id="path5822"
         style="fill:#ffffff;fill-opacity:1;fill-rule:nonzero;stroke:none"
         d="M 0,0 L -4.441,0 L -4.441,2.334 L 7.02,2.334 L 7.02,0 L 2.578,0 L 2.578,-12.158 L 0,-12.158 L 0,0 z" />
    </g>
    <g
       transform="matrix(1.25,0,0,-1.25,391.23188,405.16627)"
       id="g5824">
      <path
         id="path5826"
         style="fill:#ffffff;fill-opacity:1;fill-rule:nonzero;stroke:none"
         d="M 0,0 L 9.6,0 L 9.6,-2.334 L 2.58,-2.334 L 2.58,-5.895 L 9.231,-5.895 L 9.231,-8.228 L 2.58,-8.228 L 2.58,-12.158 L 9.969,-12.158 L 9.969,-14.492 L 0,-14.492 L 0,0 z M 5.711,3.929 L 8.496,3.929 L 5.608,0.982 L 3.686,0.982 L 5.711,3.929 z" />
    </g>
    <g
       transform="matrix(1.25,0,0,-1.25,247.65148,430.61089)"
       id="g5828">
      <path
         id="path5830"
         style="fill:#ffffff;fill-opacity:1;fill-rule:nonzero;stroke:none"
         d="M 0,0 L -4.442,0 L -4.442,2.334 L 7.021,2.334 L 7.021,0 L 2.579,0 L 2.579,-12.158 L 0,-12.158 L 0,0 z" />
    </g>
    <g
       transform="matrix(1.25,0,0,-1.25,-733.10536,1173.1023)"
       id="g5832">
      <g
         clip-path="url(#clipPath5836)"
         id="g5834">
        <g
           transform="translate(800.8373,596.6961)"
           id="g5840">
          <path
             id="path5842"
             style="fill:#ffffff;fill-opacity:1;fill-rule:nonzero;stroke:none"
             d="M 0,0 C 4.524,0.081 7.716,-2.948 7.716,-7.593 C 7.716,-12.117 4.524,-15.147 0,-15.229 C -4.462,-15.229 -7.655,-12.2 -7.655,-7.675 C -7.655,-3.031 -4.462,0 0,0 M 0.021,-12.895 C 3.029,-12.895 5.014,-10.603 5.014,-7.513 C 5.014,-4.626 3.029,-2.333 0.021,-2.333 C -2.968,-2.333 -4.953,-4.626 -4.953,-7.513 C -4.953,-10.603 -2.968,-12.895 0.021,-12.895" />
        </g>
        <g
           transform="translate(823.1898,587.1579)"
           id="g5844">
          <path
             id="path5846"
             style="fill:#ffffff;fill-opacity:1;fill-rule:nonzero;stroke:none"
             d="M 0,0 C 0,-3.5 -2.518,-5.69 -5.833,-5.69 C -9.148,-5.69 -11.666,-3.5 -11.666,0 L -11.666,9.169 L -9.087,9.169 L -9.087,0.082 C -9.087,-1.352 -8.31,-3.234 -5.833,-3.234 C -3.356,-3.234 -2.579,-1.352 -2.579,0.082 L -2.579,9.169 L 0,9.169 L 0,0 z" />
        </g>
      </g>
    </g>
    <g
       transform="matrix(1.25,0,0,-1.25,300.56618,427.69314)"
       id="g5848">
      <path
         id="path5850"
         style="fill:#ffffff;fill-opacity:1;fill-rule:nonzero;stroke:none"
         d="M 0,0 L 2.579,0 L 2.579,-12.157 L 8.74,-12.157 L 8.74,-14.491 L 0,-14.491 L 0,0 z" />
    </g>
    <g
       transform="matrix(1.25,0,0,-1.25,-733.10536,1173.1023)"
       id="g5852">
      <g
         clip-path="url(#clipPath5856)"
         id="g5854">
        <g
           transform="translate(845.0107,596.6961)"
           id="g5860">
          <path
             id="path5862"
             style="fill:#ffffff;fill-opacity:1;fill-rule:nonzero;stroke:none"
             d="M 0,0 C 4.524,0.081 7.717,-2.948 7.717,-7.593 C 7.717,-12.117 4.524,-15.147 0,-15.229 C -4.462,-15.229 -7.655,-12.2 -7.655,-7.675 C -7.655,-3.031 -4.462,0 0,0 M 0.021,-12.895 C 3.029,-12.895 5.015,-10.603 5.015,-7.513 C 5.015,-4.626 3.029,-2.333 0.021,-2.333 C -2.968,-2.333 -4.953,-4.626 -4.953,-7.513 C -4.953,-10.603 -2.968,-12.895 0.021,-12.895" />
        </g>
        <g
           transform="translate(867.3633,587.1579)"
           id="g5864">
          <path
             id="path5866"
             style="fill:#ffffff;fill-opacity:1;fill-rule:nonzero;stroke:none"
             d="M 0,0 C 0,-3.5 -2.517,-5.69 -5.833,-5.69 C -9.15,-5.69 -11.667,-3.5 -11.667,0 L -11.667,9.169 L -9.087,9.169 L -9.087,0.082 C -9.087,-1.352 -8.31,-3.234 -5.833,-3.234 C -3.357,-3.234 -2.578,-1.352 -2.578,0.082 L -2.578,9.169 L 0,9.169 L 0,0 z" />
        </g>
        <g
           transform="translate(878.2124,593.2159)"
           id="g5868">
          <path
             id="path5870"
             style="fill:#ffffff;fill-opacity:1;fill-rule:nonzero;stroke:none"
             d="M 0,0 C -0.552,0.778 -1.535,1.146 -2.536,1.146 C -3.724,1.146 -4.913,0.613 -4.913,-0.716 C -4.913,-3.623 1.965,-1.965 1.965,-7.122 C 1.965,-10.234 -0.491,-11.748 -3.336,-11.748 C -5.137,-11.748 -6.897,-11.195 -8.085,-9.784 L -6.14,-7.9 C -5.506,-8.863 -4.42,-9.414 -3.274,-9.414 C -2.087,-9.414 -0.737,-8.76 -0.737,-7.431 C -0.737,-4.256 -7.614,-6.079 -7.614,-0.9 C -7.614,2.087 -4.953,3.479 -2.271,3.479 C -0.758,3.479 0.758,3.049 1.883,1.986 L 0,0 z" />
        </g>
      </g>
    </g>
    <g
       transform="matrix(1.25,0,0,-1.25,371.18548,427.69314)"
       id="g5872">
      <path
         id="path5874"
         style="fill:#ffffff;fill-opacity:1;fill-rule:nonzero;stroke:none"
         d="M 0,0 L 9.6,0 L 9.6,-2.334 L 2.58,-2.334 L 2.58,-5.895 L 9.231,-5.895 L 9.231,-8.228 L 2.58,-8.228 L 2.58,-12.157 L 9.968,-12.157 L 9.968,-14.491 L 0,-14.491 L 0,0 z" />
    </g>
    <g
       transform="matrix(1.25,0,0,-1.25,400.66148,431.22464)"
       id="g5876">
      <path
         id="path5878"
         style="fill:#ffffff;fill-opacity:1;fill-rule:nonzero;stroke:none"
         d="M 0,0 L -2.722,-2.517 L -4.154,-0.819 L 0.224,2.825 L 2.456,2.825 L 2.456,-11.666 L 0,-11.666 L 0,0 z" />
    </g>
    <g
       transform="matrix(1.25,0,0,-1.25,-733.10536,1173.1023)"
       id="g5880">
      <g
         clip-path="url(#clipPath5884)"
         id="g5882">
        <g
           transform="translate(790.72,575.2651)"
           id="g5888">
          <path
             id="path5890"
             style="fill:#ffffff;fill-opacity:1;fill-rule:nonzero;stroke:none"
             d="M 0,0 C -1.065,1.126 -2.047,1.432 -3.05,1.432 C -6.037,1.432 -8.023,-0.859 -8.023,-3.746 C -8.023,-6.837 -6.037,-9.129 -3.05,-9.129 C -1.883,-9.129 -0.758,-8.596 0.205,-7.369 L 2.333,-8.884 C 1.023,-10.685 -0.942,-11.461 -3.07,-11.461 C -7.532,-11.461 -10.725,-8.433 -10.725,-3.91 C -10.725,0.737 -7.532,3.766 -3.07,3.766 C -1.105,3.766 0.573,3.131 2.007,1.473 L 0,0 z" />
        </g>
      </g>
    </g>
    <g
       transform="matrix(1.25,0,0,-1.25,272.00478,449.77552)"
       id="g5892">
      <path
         id="path5894"
         style="fill:#ffffff;fill-opacity:1;fill-rule:nonzero;stroke:none"
         d="M 0,0 L 2.231,0 L 8.472,-14.49 L 5.526,-14.49 L 4.174,-11.174 L -2.108,-11.174 L -3.419,-14.49 L -6.305,-14.49 L 0,0 z M 3.274,-8.964 L 1.044,-3.069 L -1.229,-8.964 L 3.274,-8.964 z" />
    </g>
    <g
       transform="matrix(1.25,0,0,-1.25,-733.10536,1173.1023)"
       id="g5896">
      <g
         clip-path="url(#clipPath5900)"
         id="g5898">
        <g
           transform="translate(818.7857,578.6627)"
           id="g5904">
          <path
             id="path5906"
             style="fill:#ffffff;fill-opacity:1;fill-rule:nonzero;stroke:none"
             d="M 0,0 L 4.871,0 C 7.674,0 10.212,-0.982 10.212,-4.196 C 10.212,-7.84 7.49,-8.495 4.42,-8.495 L 2.579,-8.495 L 2.579,-14.492 L 0,-14.492 L 0,0 z M 4.134,-6.284 C 5.608,-6.284 7.511,-6.201 7.511,-4.237 C 7.511,-2.458 5.813,-2.211 4.42,-2.211 L 2.579,-2.211 L 2.579,-6.284 L 4.134,-6.284 z" />
        </g>
      </g>
    </g>
    <path
       id="path5908"
       style="fill:#ffffff;fill-opacity:1;fill-rule:nonzero;stroke:none"
       d="M 311.68964,449.77352 L 314.91339,449.77352 L 314.91339,467.88602 L 311.68964,467.88602 L 311.68964,449.77352 z" />
    <g
       transform="matrix(1.25,0,0,-1.25,328.34598,452.69089)"
       id="g5910">
      <path
         id="path5912"
         style="fill:#ffffff;fill-opacity:1;fill-rule:nonzero;stroke:none"
         d="M 0,0 L -4.441,0 L -4.441,2.334 L 7.021,2.334 L 7.021,0 L 2.58,0 L 2.58,-12.158 L 0,-12.158 L 0,0 z" />
    </g>
    <g
       transform="matrix(1.25,0,0,-1.25,-733.10536,1173.1023)"
       id="g5914">
      <g
         clip-path="url(#clipPath5918)"
         id="g5916">
        <g
           transform="translate(869.4257,579.0315)"
           id="g5922">
          <path
             id="path5924"
             style="fill:#ffffff;fill-opacity:1;fill-rule:nonzero;stroke:none"
             d="M 0,0 C 4.523,0.081 7.716,-2.948 7.716,-7.593 C 7.716,-12.117 4.523,-15.147 0,-15.229 C -4.461,-15.229 -7.655,-12.2 -7.655,-7.675 C -7.655,-3.031 -4.461,0 0,0 M 0.021,-12.895 C 3.029,-12.895 5.014,-10.603 5.014,-7.513 C 5.014,-4.626 3.029,-2.333 0.021,-2.333 C -2.968,-2.333 -4.953,-4.626 -4.953,-7.513 C -4.953,-10.603 -2.968,-12.895 0.021,-12.895" />
        </g>
      </g>
    </g>
    <g
       transform="matrix(1.25,0,0,-1.25,372.15268,449.7739)"
       id="g5926">
      <path
         id="path5928"
         style="fill:#ffffff;fill-opacity:1;fill-rule:nonzero;stroke:none"
         d="M 0,0 L 2.578,0 L 2.578,-12.157 L 8.739,-12.157 L 8.739,-14.491 L 0,-14.491 L 0,0 z" />
    </g>
    <g
       transform="matrix(1.25,0,0,-1.25,391.18868,449.7739)"
       id="g5930">
      <path
         id="path5932"
         style="fill:#ffffff;fill-opacity:1;fill-rule:nonzero;stroke:none"
         d="M 0,0 L 9.6,0 L 9.6,-2.334 L 2.58,-2.334 L 2.58,-5.895 L 9.231,-5.895 L 9.231,-8.228 L 2.58,-8.228 L 2.58,-12.157 L 9.968,-12.157 L 9.968,-14.491 L 0,-14.491 L 0,0 z" />
    </g>
    <g
       transform="matrix(1.25,0,0,-1.25,-733.10536,1173.1023)"
       id="g5934">
      <g
         clip-path="url(#clipPath5938)"
         id="g5936">
        <g
           transform="translate(838.8994,671.2839)"
           id="g5942">
          <path
             id="path5944"
             style="fill:#ffffff;fill-opacity:1;fill-rule:nonzero;stroke:none"
             d="M 0,0 C 0.51,0.699 1.533,0.535 1.533,0.535 C 1.644,0.544 1.875,0.461 1.995,0.477 C 2.511,0.28 2.769,-0.707 2.8,-0.758 C 2.827,-1.072 2.834,-1.451 2.659,-1.678 C 2.483,-1.956 2.247,-2.126 2.201,-2.126 C 2.122,-2.129 2.065,-2.194 1.995,-2.219 C 1.814,-2.285 1.552,-2.166 1.345,-2.178 C 1.281,-2.057 0.97,-1.838 0.952,-1.665 C 0.941,-1.552 0.877,-1.544 0.921,-1.43 C 0.921,-1.371 0.981,-1.288 0.952,-1.258 C 0.965,-0.981 1.382,-0.828 1.656,-0.878 C 1.767,-0.913 1.763,-1.019 1.805,-1.054 C 1.739,-1.14 1.562,-1.248 1.588,-1.406 C 1.601,-1.474 1.674,-1.552 1.793,-1.542 C 1.832,-1.538 1.895,-1.426 1.955,-1.353 C 2.021,-1.271 2.096,-1.218 2.145,-1.15 C 2.108,-1.018 2.016,-0.755 2.023,-0.689 C 1.962,-0.568 1.763,-0.587 1.751,-0.417 C 1.589,-0.471 1.165,-0.311 1.169,-0.553 C 0.783,-0.627 0.59,-0.896 0.383,-1.15 C 0.391,-1.2 0.43,-1.219 0.45,-1.258 C 0.358,-1.423 0.238,-1.631 0.302,-1.907 C 0.247,-1.961 0.169,-1.992 0.125,-2.057 C 0.156,-2.192 0.247,-2.333 0.221,-2.463 C 0.201,-2.562 0.033,-2.602 0.084,-2.734 C -0.092,-2.724 -0.029,-2.52 0.031,-2.355 C -0.038,-1.9 0.048,-1.234 0.301,-0.923 C 0.441,-0.621 0.7,-0.507 0.939,-0.363 C 1.099,-0.266 1.241,-0.208 1.458,-0.208 C 1.544,-0.186 1.613,-0.223 1.684,-0.188 C 1.939,-0.284 2.125,-0.405 2.266,-0.661 C 2.291,-0.884 2.325,-1.048 2.359,-1.261 C 2.331,-1.341 2.256,-1.439 2.192,-1.495 C 2.116,-1.618 1.977,-1.587 1.968,-1.746 C 1.713,-1.804 1.671,-1.605 1.41,-1.628 C 1.361,-1.508 1.381,-1.376 1.345,-1.271 C 1.292,-1.246 1.229,-1.314 1.182,-1.338 C 1.128,-1.402 1.128,-1.533 1.182,-1.651 C 1.338,-1.808 1.58,-2.133 1.901,-1.948 C 1.953,-1.919 2.122,-1.904 2.181,-1.835 C 2.354,-1.635 2.621,-1.325 2.591,-1.04 C 2.572,-0.846 2.557,-0.705 2.428,-0.471 C 2.328,-0.351 2.342,-0.188 2.163,-0.093 C 2.118,-0.093 2.031,0 1.928,0.016 C 1.67,0.107 1.345,0.178 1.02,0.083 C 0.82,-0.024 0.62,0.01 0.436,-0.255 C 0.329,-0.292 -0.102,-0.881 -0.104,-1.393 C -0.217,-1.638 -0.234,-1.792 -0.281,-1.853 C -0.287,-2.106 -0.225,-2.354 -0.266,-2.599 C -0.299,-2.616 -0.346,-2.872 -0.416,-2.91 C -0.317,-2.925 -0.237,-2.957 -0.173,-3.005 C -0.114,-2.904 -0.097,-2.765 0.084,-2.788 C 0.128,-3.017 0.138,-3.276 0.383,-3.303 C 0.509,-3.535 0.369,-3.795 0.329,-4.02 C 0.253,-4.03 0.228,-4.092 0.139,-4.089 C 0.05,-4.308 -0.12,-4.702 0.059,-4.943 C -0.207,-5.179 0.254,-5.756 -0.118,-5.917 C -0.053,-6.204 -0.043,-6.63 -0.104,-6.946 C -0.123,-7.044 -0.18,-7.144 -0.185,-7.231 C -0.202,-7.496 -0.279,-8.087 -0.294,-8.179 C -0.387,-8.116 -0.369,-7.828 -0.349,-7.773 C -0.325,-7.711 -0.27,-6.587 -0.253,-6.554 C -0.255,-6.483 -0.342,-5.345 -0.173,-4.943 C -0.274,-4.848 -0.185,-4.567 -0.253,-4.441 C -0.104,-4.306 -0.096,-4.174 -0.335,-4.116 C -0.455,-4.163 -0.461,-4.323 -0.55,-4.401 C -0.48,-4.49 -0.508,-4.681 -0.429,-4.766 C -0.53,-4.928 -0.658,-5.875 -0.496,-5.944 C -0.529,-6.114 -0.509,-6.664 -0.55,-6.743 C -0.53,-6.803 -0.584,-7.649 -0.565,-7.705 C -0.504,-7.892 -0.617,-9.685 -0.606,-9.724 C -0.584,-9.868 -0.673,-10.092 -0.687,-10.253 C -0.743,-10.281 -0.823,-10.288 -0.89,-10.307 C -0.907,-10.225 -0.952,-10.019 -0.863,-10.008 C -0.793,-9.751 -0.926,-9.526 -0.917,-9.305 C -0.913,-9.171 -0.823,-9.032 -0.837,-8.898 C -0.85,-8.753 -0.856,-8.439 -0.823,-8.423 C -0.798,-8.195 -0.813,-7.928 -0.81,-7.678 C -0.835,-7.649 -0.911,-6.982 -0.781,-6.825 C -0.785,-6.743 -0.789,-6.144 -0.81,-6.093 C -0.823,-5.962 -0.667,-5.14 -0.701,-4.78 C -0.668,-4.771 -0.695,-4.652 -0.727,-4.576 C -0.574,-4.203 -0.902,-4.039 -0.89,-3.682 C -0.884,-3.621 -0.97,-3.653 -0.971,-3.601 C -0.987,-3.411 -0.786,-3.374 -0.837,-3.195 C -0.784,-3.192 -0.736,-3.194 -0.701,-3.208 C -0.625,-3.088 -0.656,-2.864 -0.565,-2.761 C -0.635,-2.637 -0.522,-2.653 -0.574,-2.512 C -0.483,-2.364 -0.585,-2.221 -0.483,-2.084 C -0.656,-0.953 0,0 0,0 M -0.55,-3.425 C -0.509,-3.499 0.113,-3.669 0.056,-3.33 C -0.098,-3.266 -0.541,-3.168 -0.55,-3.425 M -0.592,-3.886 C -0.374,-3.896 -0.158,-3.846 0.046,-3.886 C 0.038,-3.812 0.105,-3.811 0.099,-3.736 C -0.042,-3.709 -0.735,-3.519 -0.592,-3.886" />
        </g>
        <g
           transform="translate(838.673,662.5217)"
           id="g5946">
          <path
             id="path5948"
             style="fill:#ffffff;fill-opacity:1;fill-rule:nonzero;stroke:none"
             d="M 0,0 C 0.129,-0.132 -0.035,-0.474 0.122,-0.569 C 0.046,-0.634 0.027,-0.81 0.122,-0.867 C 0.035,-1.018 -0.001,-2.626 0.068,-2.844 C 0.05,-2.913 -0.021,-2.927 -0.041,-2.994 C -0.051,-3.165 0.018,-3.366 -0.095,-3.453 C 0.002,-3.529 -0.126,-4.998 -0.163,-4.998 C -0.031,-5.115 -0.023,-6.734 -0.177,-6.881 C -0.032,-7.102 -0.276,-7.626 -0.311,-7.612 C -0.309,-7.665 -0.238,-8.843 -0.217,-8.886 C -0.456,-9.425 -0.129,-10.404 -0.475,-10.851 C -0.422,-10.935 -0.281,-11.09 -0.406,-11.189 C -0.32,-11.316 -0.324,-11.552 -0.433,-11.649 C -0.412,-11.751 -0.432,-11.98 -0.461,-12.043 C -0.468,-12.212 -0.438,-12.675 -0.406,-12.747 C -0.404,-12.866 -0.427,-13.037 -0.406,-13.085 C -0.418,-13.209 -0.456,-13.553 -0.515,-13.641 C -0.768,-13.571 -0.516,-13.081 -0.704,-12.95 C -0.598,-12.797 -0.75,-12.465 -0.61,-12.341 C -0.684,-12.257 -0.717,-11.758 -0.771,-11.69 C -0.863,-11.737 -0.811,-12.653 -0.84,-12.706 C -0.834,-12.781 -0.916,-12.999 -0.962,-13.112 C -0.949,-13.154 -0.88,-13.635 -0.935,-13.654 C -0.9,-13.678 -0.898,-13.831 -0.935,-13.844 C -0.911,-13.902 -0.824,-13.895 -0.786,-13.938 C -0.687,-13.88 -0.69,-13.718 -0.501,-13.748 C -0.402,-13.861 -0.505,-14.014 -0.569,-14.088 C -0.557,-14.158 -0.452,-14.132 -0.433,-14.196 C -0.431,-14.35 -0.69,-14.317 -0.744,-14.237 C -0.759,-14.159 -0.698,-14.157 -0.69,-14.102 C -0.754,-13.932 -0.945,-14.092 -1.057,-14.115 C -1.096,-13.935 -1.157,-13.64 -1.057,-13.477 C -1.177,-13.314 -1.186,-12.918 -1.029,-12.787 C -1.086,-12.553 -1.035,-12.198 -1.057,-11.88 C -1.065,-11.76 -1.117,-11.638 -1.111,-11.568 C -1.089,-11.324 -1.089,-11.102 -1.029,-10.932 C -1.024,-10.916 -1.001,-10.284 -1.029,-10.173 C -0.974,-10.123 -0.818,-10.088 -0.758,-10.16 C -0.799,-10.392 -0.57,-10.459 -0.501,-10.498 C -0.481,-10.382 -0.595,-10.403 -0.61,-10.322 C -0.553,-10.184 -0.49,-10.052 -0.419,-9.929 C -0.457,-9.899 -0.49,-8.798 -0.419,-8.792 C -0.483,-8.546 -0.525,-8.183 -0.433,-7.938 C -0.52,-7.866 -0.457,-7.538 -0.419,-7.531 C -0.424,-7.195 -0.7,-7.765 -0.744,-7.761 C -0.564,-7.974 -0.631,-9.206 -0.758,-9.414 C -0.742,-9.48 -0.723,-9.656 -0.758,-9.713 C -0.78,-9.841 -0.779,-10.045 -0.853,-10.065 C -0.948,-9.84 -0.966,-9.456 -0.853,-9.238 C -0.862,-9.174 -0.893,-9.046 -0.88,-8.994 C -0.902,-8.881 -0.886,-8.637 -0.853,-8.574 C -0.866,-8.447 -0.847,-8.288 -0.921,-8.223 C -0.747,-8.062 -1.037,-7.681 -0.826,-7.531 C -0.855,-7.131 -0.91,-6.627 -0.812,-6.258 C -0.838,-6.18 -0.856,-6.011 -0.786,-6.014 C -0.765,-5.57 -0.895,-4.639 -0.84,-4.483 C -0.807,-4.458 -0.798,-3.913 -0.744,-3.82 C -0.698,-3.782 -0.738,-3.1 -0.758,-2.695 C -0.72,-2.675 -0.626,-1.89 -0.704,-1.598 C -0.635,-1.578 -0.549,-1.512 -0.461,-1.558 C -0.509,-1.786 -0.337,-2.134 -0.515,-2.289 C -0.474,-2.357 -0.623,-3.025 -0.623,-3.047 C -0.606,-3.115 -0.399,-3.465 -0.541,-3.589 C -0.467,-3.841 -0.558,-4.778 -0.596,-4.877 C -0.602,-4.932 -0.564,-5.111 -0.636,-5.147 C -0.575,-5.232 -0.524,-5.395 -0.569,-5.541 C -0.274,-5.583 -0.541,-5.061 -0.325,-5.026 C -0.364,-4.888 -0.324,-4.511 -0.284,-4.443 C -0.384,-4.271 -0.239,-3.088 -0.284,-2.994 C -0.274,-2.946 -0.2,-2.961 -0.19,-2.911 C -0.24,-2.801 -0.205,-1.226 -0.19,-1.096 C -0.177,-0.981 -0.216,-0.483 -0.202,-0.406 C -0.206,-0.336 -0.198,-0.159 -0.15,-0.081 C -0.157,-0.004 -0.114,0.131 -0.109,0.217 C -0.099,0.343 -0.259,0.328 -0.202,0.488 C -0.194,0.514 -0.126,0.574 -0.082,0.569 C 0.047,0.553 0.129,0.117 0,0" />
        </g>
        <g
           transform="translate(855.6198,660.8558)"
           id="g5950">
          <path
             id="path5952"
             style="fill:#ffffff;fill-opacity:1;fill-rule:nonzero;stroke:none"
             d="M 0,0 C 0,-0.042 0.024,-0.089 0.039,-0.15 C -0.024,-0.207 -0.104,-0.32 -0.231,-0.27 C -0.412,-0.405 -0.824,-0.735 -0.854,-0.758 C -1.108,-0.786 -2.271,-1.423 -2.344,-1.571 C -2.534,-1.566 -3.464,-2.269 -3.698,-2.316 C -3.758,-2.329 -4.107,-2.549 -4.322,-2.534 C -4.363,-2.543 -4.361,-2.595 -4.388,-2.615 L -4.769,-2.615 C -4.872,-2.482 -4.911,-2.289 -5.026,-2.167 C -5.567,-2.125 -5.984,-2.318 -6.422,-2.425 C -6.419,-2.612 -6.501,-3.013 -6.529,-3.047 C -6.546,-3.225 -6.396,-3.487 -6.596,-3.536 C -6.436,-3.678 -6.569,-4.556 -6.462,-4.688 C -6.536,-4.88 -6.607,-5.065 -6.624,-5.296 C -6.63,-5.383 -6.601,-5.477 -6.612,-5.568 C -6.629,-5.719 -6.719,-5.851 -6.719,-6.068 C -6.72,-6.343 -6.931,-8.213 -7.018,-8.398 C -7.004,-8.43 -6.97,-8.908 -7.085,-9.063 C -6.909,-9.198 -7.055,-9.502 -7.018,-9.699 C -7.006,-9.751 -6.982,-10.792 -6.909,-10.918 C -6.898,-10.974 -6.889,-11.008 -6.881,-11.04 C -6.903,-11.452 -6.974,-11.816 -7.222,-12.002 C -7.219,-12.09 -7.134,-12.096 -7.072,-12.124 C -7.078,-12.185 -7.057,-12.273 -7.085,-12.313 C -6.795,-12.392 -6.436,-12.341 -6.137,-12.326 C -5.883,-12.315 -5.696,-12.368 -5.459,-12.408 C -5.207,-12.451 -4.732,-12.563 -4.673,-12.57 C -4.567,-12.634 -4.406,-12.96 -4.401,-12.964 C -4.176,-13.231 -3.863,-13.711 -3.659,-14.047 C -3.666,-14.166 -3.695,-14.353 -3.685,-14.4 C -3.808,-14.516 -3.769,-14.795 -3.794,-15.01 C -4.061,-15.089 -4.143,-15.354 -4.417,-15.429 C -4.471,-15.428 -5.657,-15.49 -6.11,-15.469 C -6.568,-15.449 -8.122,-15.51 -8.21,-15.565 C -8.266,-15.562 -10.229,-15.547 -10.444,-15.537 C -10.64,-15.529 -10.871,-15.568 -11.081,-15.579 C -11.401,-15.593 -15.039,-15.522 -15.35,-15.525 C -15.444,-15.525 -15.813,-15.517 -15.904,-15.525 C -16.114,-15.537 -16.311,-15.506 -16.473,-15.565 C -16.485,-15.51 -17.302,-15.743 -17.475,-15.619 C -17.936,-15.64 -18.018,-15.169 -18.018,-15.169 C -18.018,-15.003 -18.156,-14.865 -18.156,-14.865 C -18.318,-14.552 -18.178,-13.885 -18.178,-13.885 C -18.239,-13.791 -18.224,-13.619 -18.178,-13.519 C -18.16,-13.498 -18.177,-13.269 -18.193,-13.222 C -18.114,-13.1 -18.06,-12.798 -18.193,-12.693 C -18.177,-12.623 -18.104,-12.611 -18.111,-12.516 C -17.99,-12.586 -17.865,-12.471 -17.732,-12.516 C -17.774,-12.616 -18.013,-14.112 -17.99,-14.21 C -17.968,-14.303 -17.744,-14.158 -17.759,-14.128 C -17.765,-14.014 -17.695,-13.947 -17.732,-13.939 C -17.68,-13.753 -17.668,-13.319 -17.678,-13.289 C -17.692,-13.236 -17.671,-12.803 -17.584,-12.68 C -17.406,-12.65 -17.421,-12.816 -17.38,-12.922 C -17.426,-12.999 -17.492,-13.056 -17.543,-13.126 C -17.478,-13.306 -17.411,-13.62 -17.53,-13.791 C -17.411,-13.878 -17.519,-14.195 -17.394,-14.277 C -17.293,-14.278 -17.248,-14.226 -17.204,-14.169 C -17.204,-14.109 -17.021,-13.869 -17.042,-13.831 C -16.697,-13.386 -16.104,-13.187 -15.769,-12.733 C -15.769,-12.68 -15.669,-12.498 -15.646,-12.435 C -15.744,-12.332 -15.721,-12.006 -15.729,-11.991 C -15.755,-11.945 -15.76,-10.883 -15.877,-10.742 C -15.749,-10.458 -15.884,-9.692 -15.904,-9.646 C -15.791,-9.389 -15.879,-8.497 -15.931,-8.385 C -15.877,-8.304 -15.857,-8.131 -15.904,-8.1 C -15.797,-7.931 -15.874,-7.458 -15.877,-7.396 C -15.843,-7.358 -15.845,-6.74 -15.891,-6.718 C -15.901,-6.667 -15.856,-6.251 -15.877,-6.204 C -15.859,-6.073 -15.803,-5.85 -15.931,-5.798 C -15.902,-5.699 -15.873,-5.496 -15.877,-5.432 C -15.807,-5.323 -15.784,-5.227 -15.796,-5.067 C -15.803,-4.94 -15.874,-4.813 -15.877,-4.714 C -15.878,-4.65 -15.875,-4.434 -15.904,-4.389 C -15.826,-4.198 -15.753,-3.874 -15.904,-3.711 C -15.886,-3.674 -15.865,-3.643 -15.836,-3.617 C -15.908,-3.395 -15.753,-1.66 -15.931,-1.49 C -15.88,-1.35 -15.902,-1.032 -15.904,-0.948 C -15.905,-0.807 -15.854,-0.564 -15.904,-0.57 C -15.907,-0.493 -15.928,-0.258 -15.863,-0.15 C -16.022,0.027 -16.159,0.223 -16.405,0.311 C -16.317,0.491 -16.626,0.58 -16.378,0.705 C -16.383,0.763 -16.453,0.756 -16.459,0.813 C -16.357,1.04 -16.202,1.215 -16.148,1.49 C -15.99,1.5 -15.901,1.578 -15.808,1.653 C -15.416,1.612 -14.884,1.709 -14.806,1.355 C -14.56,1.353 -14.568,1.095 -14.454,0.961 C -14.505,0.884 -14.545,0.707 -14.427,0.677 C -14.444,0.35 -14.722,0.284 -14.697,-0.081 C -14.847,-0.062 -14.898,-0.237 -15.064,-0.244 C -15.122,-0.107 -14.932,-0.005 -15.023,0.121 C -14.92,0.24 -14.872,0.414 -14.752,0.515 C -14.85,0.629 -14.625,0.863 -14.888,0.867 C -14.826,1.046 -14.959,1.123 -14.996,1.246 C -15.162,1.309 -15.736,1.485 -15.673,1.125 C -15.647,0.972 -15.425,0.971 -15.227,0.961 C -15.229,0.825 -15.387,0.842 -15.498,0.813 C -15.488,0.743 -15.495,0.661 -15.564,0.609 C -15.418,0.566 -15.321,0.472 -15.227,0.38 C -15.357,0.193 -15.371,-0.107 -15.443,-0.352 C -15.419,-0.419 -15.386,-0.789 -15.429,-0.908 C -15.428,-0.945 -15.414,-1.099 -15.429,-1.205 C -15.413,-1.272 -15.311,-2.015 -15.335,-2.384 C -15.141,-2.398 -15.199,-2.159 -15.05,-2.126 C -15.04,-2.049 -15.15,-2.019 -15.158,-1.938 C -15.163,-1.899 -15.119,-1.847 -15.104,-1.788 C -15.039,-1.507 -15.207,-0.577 -15.212,-0.515 C -15.178,-0.392 -15.016,-0.395 -14.888,-0.366 C -14.969,-0.565 -14.819,-1.617 -14.902,-1.815 C -14.762,-1.986 -14.156,-1.793 -14.116,-1.748 C -13.805,-1.716 -13.37,-1.807 -13.329,-1.504 C -13.393,-1.382 -13.418,-1.059 -13.452,-1.031 C -13.412,-0.792 -13.568,-0.228 -13.668,-0.163 C -13.623,0.014 -13.692,0.133 -13.789,0.203 C -13.789,0.266 -13.911,0.562 -13.885,0.826 C -13.911,0.878 -14.127,1.55 -14.223,1.747 C -14.281,1.865 -14.396,1.973 -14.414,2.072 C -14.444,2.25 -14.371,2.411 -14.548,2.507 C -14.54,2.605 -14.594,2.75 -14.629,2.777 C -14.516,2.906 -14.714,3.239 -14.766,3.265 C -14.795,3.408 -14.748,4.524 -14.888,4.862 C -14.841,4.933 -14.632,5.853 -14.562,5.852 C -14.539,5.941 -14.578,6.265 -14.495,6.271 C -14.531,6.574 -14.286,6.873 -14.278,6.95 C -14.266,6.996 -14.238,7.065 -14.237,7.125 C -14.202,7.18 -13.864,7.695 -13.831,7.951 C -13.811,8.097 -13.921,8.307 -13.789,8.399 C -13.922,8.491 -13.983,8.759 -13.913,8.968 C -13.659,9.066 -13.361,9.193 -13.411,9.55 C -13.295,9.628 -13.143,9.671 -13.168,9.889 C -12.986,9.935 -12.887,10.058 -12.747,10.147 C -12.756,10.223 -12.839,10.225 -12.87,10.281 C -12.857,10.712 -12.652,10.947 -12.422,11.162 C -12.567,11.493 -12.102,11.526 -12.151,11.893 C -11.935,11.98 -11.884,12.232 -11.678,12.327 C -11.683,12.434 -11.657,12.572 -11.705,12.639 C -11.596,12.726 -11.499,12.796 -11.392,12.869 C -11.238,12.976 -11.1,13.128 -10.824,13.1 C -10.496,13.065 -9.778,12.767 -9.685,12.76 C -9.54,12.749 -9.415,12.719 -9.238,12.652 C -9.19,12.629 -8.732,12.376 -8.725,12.422 C -8.451,12.018 -8.15,11.641 -7.993,11.121 C -8.017,11.077 -8.085,11.077 -8.128,11.054 C -8.129,11.003 -8.06,11.022 -8.047,10.987 C -8.099,10.82 -8.399,10.135 -8.371,10.051 C -8.375,9.991 -8.434,9.986 -8.454,9.943 C -8.395,9.407 -8.545,8.958 -8.737,8.628 C -8.799,8.568 -8.933,8.574 -9.022,8.628 C -9.107,8.506 -9.177,8.368 -9.265,8.25 C -9.195,8.133 -9.136,7.947 -9.253,7.857 C -9.299,7.756 -9.592,7.608 -9.795,7.572 C -9.938,7.547 -10.192,7.629 -10.146,7.396 C -9.947,7.276 -9.693,7.208 -9.375,7.207 L -9.375,6.882 C -9.375,6.818 -9.48,6.86 -9.483,6.8 C -9.475,6.694 -9.3,6.588 -9.265,6.556 C -9.224,6.518 -8.753,5.9 -8.683,5.906 C -8.678,5.852 -8.607,5.715 -8.562,5.715 C -8.568,5.625 -8.553,5.553 -8.454,5.568 C -8.629,5.213 -7.986,4.926 -8.358,4.701 C -8.313,4.66 -8.226,4.589 -8.143,4.633 C -8.208,4.46 -8.04,4.087 -8.21,3.969 C -8.171,3.853 -8.054,3.817 -7.993,3.726 C -8.119,3.556 -8.034,2.556 -7.763,2.574 C -7.854,2.686 -7.544,3.23 -7.641,3.305 C -7.514,3.454 -7.431,3.647 -7.316,3.807 C -7.201,3.768 -7.169,3.865 -7.004,3.914 C -6.937,3.939 -5.095,4.656 -4.741,5.026 C -4.486,5.153 -4.418,5.118 -4.268,5.215 C -4.001,5.389 -3.72,5.548 -3.455,5.715 C -3.361,5.684 -3.262,5.72 -3.157,5.715 C -3.128,5.439 -2.804,5.454 -2.547,5.404 C -2.565,5.163 -2.356,5.144 -2.357,4.917 C -2.293,4.836 -2.192,4.598 -2.194,4.552 C -2.184,4.492 -1.598,3.411 -1.584,3.345 C -1.449,3.012 -1.23,2.762 -1.098,2.426 C -1.035,2.424 -0.972,2.345 -0.975,2.303 C -0.964,2.233 -0.64,1.506 -0.61,1.436 C -0.547,1.436 -0.062,0.941 -0.095,0.501 M -8.927,12.178 C -9.117,12.321 -9.604,12.525 -9.876,12.544 C -10.157,12.564 -10.377,12.543 -10.567,12.679 C -10.616,12.714 -10.626,12.777 -10.689,12.801 C -10.843,12.86 -11.052,12.852 -11.109,12.706 C -10.968,12.703 -10.911,12.614 -10.865,12.517 C -11.012,12.483 -11.092,12.384 -11.271,12.381 C -11.279,12.184 -11.356,12.078 -11.474,11.988 C -11.597,11.895 -11.755,11.866 -11.609,11.704 C -11.471,11.639 -11.25,11.797 -11.19,11.65 C -11.23,11.524 -11.35,11.476 -11.392,11.351 C -10.86,11.205 -10.439,11.483 -10.013,11.581 C -9.884,11.611 -9.738,11.59 -9.632,11.623 C -9.565,11.642 -9.51,11.744 -9.429,11.758 C -9.177,11.801 -8.917,11.66 -8.656,11.772 C -8.687,11.914 -8.79,12.076 -8.927,12.178 M -8.549,11.528 C -8.859,11.603 -9.286,11.46 -9.605,11.379 C -9.945,11.291 -10.292,11.194 -10.607,11.175 C -10.863,11.161 -10.987,11.196 -11.109,11.054 C -10.971,11.001 -10.983,10.754 -11.053,10.633 C -10.986,10.584 -10.944,10.508 -10.892,10.444 C -10.829,10.453 -10.779,10.475 -10.715,10.485 C -10.772,10.205 -10.526,10.093 -10.647,9.874 C -10.59,9.874 -10.553,9.852 -10.486,9.862 C -10.404,10.105 -10.461,10.454 -10.486,10.716 C -10.392,10.766 -10.271,10.789 -10.214,10.878 C -10.259,10.95 -10.367,11.011 -10.295,11.121 C -9.836,11.138 -9.416,11.286 -8.94,11.202 C -8.94,11.243 -8.981,11.311 -8.927,11.325 C -8.76,11.312 -8.376,11.161 -8.331,11.393 C -8.432,11.411 -8.461,11.506 -8.549,11.528 M -11.514,10.999 C -11.613,11.081 -11.798,11.026 -11.839,10.932 C -11.729,10.953 -11.754,10.836 -11.717,10.783 C -11.686,10.787 -11.666,10.804 -11.624,10.796 C -11.597,10.862 -11.615,10.969 -11.541,10.987 C -11.492,10.954 -11.444,10.921 -11.38,10.905 C -11.32,10.939 -11.289,11.003 -11.176,10.987 C -11.201,11.168 -11.463,11.135 -11.514,10.999 M -9.671,10.728 C -9.722,10.561 -9.99,10.614 -10.201,10.606 C -10.331,10.491 -10.173,10.279 -10.227,10.118 C -10.181,10.088 -10.103,10.09 -10.092,10.024 C -10.103,9.959 -10.179,9.956 -10.227,9.93 C -10.104,9.623 -10.492,9.234 -10.525,9.211 C -10.553,9.172 -10.547,9.097 -10.58,9.063 C -10.674,9.041 -10.806,9.054 -10.811,8.94 C -10.764,8.914 -10.689,8.917 -10.689,8.845 C -10.729,8.718 -10.901,8.724 -10.919,8.574 C -10.909,8.53 -10.814,8.572 -10.824,8.507 C -10.874,8.312 -11.247,8.262 -11.38,8.412 C -11.407,8.34 -11.456,8.291 -11.461,8.196 C -11.399,8.161 -11.329,8.135 -11.299,8.074 C -11.307,7.961 -11.445,7.976 -11.528,7.938 C -11.574,8.031 -11.774,8.095 -11.839,7.978 C -11.615,7.92 -11.48,7.667 -11.257,7.586 C -11.025,7.502 -10.776,7.505 -10.511,7.423 C -10.437,7.488 -10.343,7.532 -10.295,7.626 C -10.396,7.869 -10.908,8.003 -10.797,8.155 C -10.835,8.156 -10.227,8.257 -10.132,7.978 C -9.884,7.943 -9.419,7.788 -9.415,8.114 C -9.414,8.202 -9.516,8.269 -9.456,8.399 C -9.517,8.393 -9.541,8.421 -9.552,8.466 C -9.411,8.47 -9.489,8.662 -9.496,8.75 C -9.463,8.781 -9.393,8.774 -9.348,8.792 C -9.344,8.915 -9.443,8.939 -9.429,9.076 C -9.344,9.199 -9.043,9.173 -9.064,8.968 C -9.017,8.886 -8.939,8.857 -8.86,8.968 C -8.655,9.114 -8.801,9.614 -8.683,9.848 C -8.722,9.85 -8.777,9.836 -8.779,9.874 C -8.664,10.126 -8.588,10.416 -8.508,10.701 C -8.549,10.701 -8.628,10.66 -8.643,10.716 C -8.655,10.813 -8.558,10.8 -8.549,10.878 C -8.923,10.883 -9.284,10.755 -9.671,10.728 M -12.87,8.412 C -13.006,8.47 -13.201,8.54 -13.141,8.75 C -13.237,8.915 -13.556,8.938 -13.708,8.805 C -13.616,8.684 -13.334,8.721 -13.411,8.466 C -13.364,8.319 -13.182,8.308 -13.195,8.1 C -13.172,8.073 -13.105,8.09 -13.126,8.019 C -13.117,7.947 -13.232,7.998 -13.235,7.938 C -13.132,7.899 -13.116,7.722 -13.182,7.626 C -12.894,7.377 -12.52,7.213 -12.084,7.111 C -12.119,7.239 -12.27,7.25 -12.247,7.436 C -12.631,7.423 -12.778,7.8 -12.666,8.155 C -12.804,8.171 -12.832,8.296 -12.87,8.412 M -12.517,7.681 C -12.434,7.675 -12.426,7.743 -12.341,7.735 C -12.21,7.645 -12.08,7.553 -12.07,7.342 C -11.892,7.363 -11.777,7.446 -11.555,7.423 C -11.614,7.695 -11.936,7.7 -12.029,7.938 C -12.287,7.948 -12.432,7.844 -12.517,7.681 M -10.269,7.247 C -10.69,7.178 -11.164,7.159 -11.663,7.165 C -11.673,7.107 -11.862,7.148 -12.002,7.098 C -11.965,6.88 -11.656,6.93 -11.528,6.8 C -11.417,6.818 -11.263,6.969 -11.122,6.963 C -11.073,6.96 -11.02,6.898 -10.959,6.894 C -10.922,6.893 -10.878,6.926 -10.838,6.935 C -10.514,7.005 -9.994,6.796 -9.848,7.071 C -9.934,7.089 -9.975,7.152 -10.065,7.165 C -10.104,7.142 -10.11,7.084 -10.173,7.084 C -10.247,7.098 -10.256,7.173 -10.269,7.247 M -12.029,6.773 C -12.491,6.709 -12.644,7.07 -13.099,7.057 C -13.159,6.761 -13.698,6.941 -13.749,6.638 C -13.807,6.63 -13.809,6.677 -13.872,6.665 C -14.003,6.552 -14.059,6.365 -14.183,6.244 C -14.089,6.244 -14.095,6.143 -14.007,6.136 C -13.788,6.383 -13.152,6.635 -13.06,6.624 C -12.865,6.765 -12.541,6.562 -12.328,6.678 C -12.281,6.616 -12.129,6.533 -12.057,6.516 C -12.005,6.458 -11.943,6.413 -11.908,6.34 C -12.269,6.193 -12.464,6.599 -12.856,6.462 C -13.034,6.26 -13.287,6.135 -13.384,5.852 C -13.327,5.809 -13.569,5.131 -13.478,4.714 C -13.342,4.708 -13.159,4.744 -13.126,4.633 C -13.261,4.395 -13.077,3.917 -13.261,3.726 C -13.232,3.656 -13.049,3.089 -13.168,2.845 C -13.005,2.867 -12.978,2.756 -12.87,2.722 C -12.799,2.735 -12.775,2.791 -12.68,2.777 C -12.551,2.505 -13.005,2.53 -12.91,2.249 C -12.96,2.24 -13.068,2.088 -13.032,2.005 C -12.957,2.007 -12.891,1.675 -12.91,1.611 C -12.746,1.598 -12.857,0.954 -12.856,0.894 C -12.778,0.745 -12.704,0.595 -12.584,0.488 C -12.49,0.505 -12.379,0.508 -12.341,0.583 C -12.429,0.983 -12.214,1.287 -12.234,1.707 C -12.192,1.706 -12.068,2.002 -12.029,2.072 C -12.081,2.098 -11.931,2.232 -11.893,2.33 C -11.929,2.412 -12.017,2.44 -12.029,2.547 C -12.238,2.527 -12.314,2.641 -12.368,2.777 C -12.339,2.802 -12.344,2.861 -12.301,2.872 C -12.058,2.835 -11.783,2.828 -11.663,2.668 C -11.673,2.591 -11.808,2.641 -11.826,2.574 C -11.78,2.525 -11.677,2.535 -11.609,2.507 C -11.652,2.326 -11.455,2.276 -11.312,2.234 C -11.32,2.428 -11.066,2.359 -10.972,2.453 C -11.053,2.504 -11.349,2.852 -11.38,2.913 C -11.26,3.072 -11.471,3.156 -11.487,3.305 C -11.432,3.322 -11.379,3.342 -11.338,3.372 C -11.395,3.483 -11.377,3.624 -11.338,3.739 C -11.358,3.778 -11.434,3.76 -11.432,3.82 C -11.43,3.871 -11.376,3.871 -11.38,3.929 C -11.386,4.068 -11.431,4.188 -11.365,4.294 C -11.436,4.488 -11.554,4.796 -11.447,5.039 C -11.514,5.045 -11.54,5.09 -11.569,5.133 C -11.519,5.524 -11.989,5.75 -11.799,6.15 C -11.565,6.024 -11.482,5.744 -11.474,5.391 C -11.271,5.301 -11.252,5.027 -11.001,4.985 C -11.005,4.841 -10.975,4.661 -11.068,4.606 C -10.958,4.472 -11.031,4.211 -11.001,4.023 C -10.953,4.029 -10.914,3.635 -10.919,3.603 C -10.92,3.565 -11.072,2.894 -10.838,2.777 C -10.965,2.721 -10.907,2.566 -10.797,2.533 C -10.483,2.644 -10.178,2.763 -9.944,2.953 C -9.944,3.012 -9.974,3.039 -9.969,3.101 C -9.922,3.117 -9.874,3.132 -9.848,3.17 C -9.922,3.246 -9.811,3.329 -9.795,3.401 C -9.922,3.538 -9.701,3.576 -9.632,3.67 C -9.634,3.751 -9.751,3.714 -9.74,3.807 L -9.632,3.807 C -9.643,3.93 -9.55,3.951 -9.496,4.01 C -9.498,4.048 -9.52,4.066 -9.525,4.105 C -9.265,4.352 -9.195,4.786 -8.873,4.971 C -8.771,5.005 -8.535,4.777 -8.495,4.958 C -8.623,5.085 -8.813,5.154 -8.792,5.431 C -8.94,5.418 -8.923,5.59 -8.886,5.689 C -8.98,5.7 -9.006,5.778 -9.103,5.784 C -9.28,5.668 -9.079,5.427 -9.09,5.229 C -9.175,5.175 -9.322,5.221 -9.361,5.296 C -9.351,5.514 -9.384,5.689 -9.375,5.906 C -9.441,5.907 -9.572,6.398 -9.552,6.719 C -9.838,6.803 -9.987,6.533 -10.227,6.502 C -10.439,6.475 -10.599,6.577 -10.865,6.556 C -10.927,6.605 -10.978,6.668 -11.014,6.746 C -11.08,6.731 -11.856,6.579 -12.029,6.773 M -7.072,3.535 C -6.92,3.517 -6.755,3.51 -6.678,3.414 C -6.555,3.483 -6.32,3.442 -6.164,3.481 C -5.921,3.447 -5.339,3.278 -5.392,2.98 C -5.321,2.986 -5.26,2.787 -5.256,2.709 C -5.253,2.601 -5.204,2.575 -5.325,2.507 C -5.377,2.476 -5.407,2.42 -5.459,2.397 C -5.748,2.278 -6.201,2.49 -6.422,2.262 C -6.408,2.091 -6.287,1.952 -6.231,1.828 C -6.195,1.748 -6.187,1.652 -6.151,1.571 C -6.115,1.496 -6.061,1.427 -6.016,1.355 C -5.959,1.268 -5.816,0.981 -5.716,0.961 C -5.622,0.944 -5.52,1.06 -5.446,1.109 C -5.168,1.295 -4.887,1.415 -4.661,1.598 C -4.359,1.626 -4.211,1.808 -4.037,1.965 C -3.995,1.961 -3.746,2.175 -3.591,2.234 C -3.553,2.249 -3.511,2.234 -3.467,2.249 C -3.21,2.335 -3.076,2.676 -2.737,2.601 C -2.838,2.223 -3.659,1.838 -3.659,1.774 C -4.013,1.642 -4.804,1.024 -4.891,1.029 C -4.952,0.965 -5.213,0.659 -5.256,0.555 C -5.237,0.511 -4.738,-0.401 -4.673,-0.596 C -4.608,-0.6 -4.558,-0.682 -4.565,-0.731 C -4.445,-0.845 -4.323,-1.003 -4.376,-1.246 C -4.271,-1.286 -3.841,-0.987 -3.644,-0.921 C -3.598,-0.905 -2.616,-0.452 -2.521,-0.366 C -2.262,-0.231 -2.131,-0.224 -2.006,-0.095 C -1.503,0.057 -1.107,0.316 -0.758,0.623 C -0.874,0.836 -0.946,1.096 -1.152,1.219 C -1.175,1.477 -1.301,1.63 -1.41,1.801 C -1.396,1.832 -1.401,1.883 -1.382,1.911 C -1.648,2.005 -1.896,2.646 -1.896,2.722 C -2.089,2.792 -2.105,3.039 -2.236,3.17 C -2.074,3.321 -2.266,3.414 -2.344,3.562 C -2.406,3.68 -2.424,3.777 -2.452,3.887 C -2.595,4.024 -2.697,4.202 -2.724,4.456 C -2.774,4.493 -2.841,4.51 -2.859,4.579 C -2.849,4.618 -2.771,4.634 -2.804,4.674 C -3.093,4.773 -3.15,5.105 -3.265,5.377 C -3.642,5.457 -3.795,5.206 -4.024,5.093 L -4.132,5.093 C -4.339,4.905 -6.398,3.945 -7.072,3.535 M -8.588,4.687 C -8.646,4.567 -8.716,4.463 -8.819,4.389 C -8.805,4.218 -9.055,3.833 -8.806,3.807 C -8.717,3.796 -8.704,3.908 -8.575,3.887 C -8.529,3.87 -8.562,3.774 -8.495,3.78 C -8.395,3.788 -8.327,3.829 -8.331,3.941 C -8.364,4 -8.459,3.995 -8.495,4.05 C -8.434,4.224 -8.537,4.531 -8.441,4.647 C -8.476,4.62 -8.552,4.67 -8.588,4.687 M -2.371,3.969 C -2.213,3.965 -2.259,3.756 -2.073,3.78 C -1.971,4.043 -2.14,4.041 -2.249,4.281 C -2.328,4.625 -2.394,4.569 -2.521,4.66 C -2.591,4.372 -2.564,4.266 -2.371,3.969 M -9.473,3.514 C -9.566,3.528 -9.536,3.386 -9.592,3.36 C -9.527,3.209 -9.692,3.171 -9.726,3.074 C -9.689,2.872 -9.822,2.754 -9.93,2.655 C -9.903,2.551 -9.809,2.514 -9.726,2.465 C -9.718,2.411 -9.744,2.321 -9.713,2.289 C -9.582,2.343 -9.557,2.174 -9.429,2.18 C -9.314,2.287 -9.259,2.454 -9.158,2.574 C -9.006,2.65 -8.48,2.606 -8.473,2.814 C -8.483,3.013 -8.813,2.873 -8.806,3.088 C -8.72,3.089 -8.424,3.169 -8.458,3.362 C -8.51,3.561 -8.811,3.24 -8.843,3.459 C -8.789,3.532 -8.562,3.548 -8.634,3.652 C -8.642,3.765 -8.957,3.719 -9.103,3.712 C -9.085,3.874 -8.611,4.932 -8.94,4.779 C -9.028,4.645 -9.527,3.75 -9.473,3.514 M -7.302,0.948 C -7.353,1.078 -7.398,1.214 -7.505,1.286 C -7.565,1.298 -7.587,1.269 -7.641,1.273 C -7.644,1.405 -7.868,1.578 -7.869,1.639 C -7.853,1.761 -7.709,1.759 -7.628,1.815 C -7.593,1.732 -7.359,1.368 -7.222,1.327 C -7.121,1.372 -7.132,1.528 -6.976,1.517 C -6.943,2.056 -6.586,2.274 -6.301,2.56 C -6.429,2.647 -6.27,2.751 -6.653,2.859 C -6.57,2.859 -6.44,2.924 -6.419,2.987 C -6.508,3.025 -6.726,3.136 -6.707,3.183 C -6.836,3.423 -7.214,3.248 -7.289,3.074 C -7.15,3.033 -7.154,2.848 -7.072,2.75 C -7.183,2.684 -7.313,2.759 -7.396,2.805 C -7.511,2.568 -7.64,2.343 -7.816,2.167 C -7.826,2.113 -7.927,1.944 -7.993,1.882 C -7.952,1.65 -8.001,1.415 -7.98,1.205 C -7.97,1.127 -7.92,1.047 -7.925,0.975 C -7.933,0.871 -8.029,0.744 -8.074,0.65 C -8.128,0.535 -8.171,0.422 -8.25,0.338 C -8.284,0.377 -8.58,0.504 -8.617,0.596 C -8.796,0.711 -8.677,1.052 -8.629,1.219 C -8.674,1.313 -8.733,1.394 -8.725,1.544 C -8.576,1.534 -8.629,1.703 -8.643,1.734 C -8.485,2.028 -8.04,2.033 -8.034,2.478 C -8.056,2.507 -8.109,2.63 -8.101,2.682 C -8.16,2.695 -8.18,2.748 -8.237,2.764 C -8.266,2.731 -9.14,1.922 -9.536,1.938 C -9.565,1.654 -9.827,1.604 -9.93,1.396 L -10.078,1.396 C -10.153,1.244 -10.258,1.122 -10.418,1.057 C -10.416,0.857 -10.578,0.819 -10.742,0.786 C -10.776,0.642 -10.915,0.605 -10.947,0.461 C -10.898,0.394 -10.785,0.394 -10.784,0.284 C -10.796,0.229 -10.874,0.24 -10.892,0.19 C -10.822,0.162 -10.685,0.199 -10.662,0.121 C -10.748,-0.022 -10.55,-0.234 -10.674,-0.379 C -10.525,-0.496 -10.447,-0.741 -10.472,-0.989 C -10.441,-1.018 -10.169,-1.623 -10.132,-1.694 C -10.183,-1.728 -9.988,-2.209 -9.944,-2.276 C -9.829,-2.287 -9.116,-2.221 -8.886,-2.113 C -8.837,-2.09 -8.711,-2.057 -8.683,-2.059 C -8.242,-2.097 -6.722,-1.804 -6.678,-1.477 C -6.709,-1.449 -6.788,-1.47 -6.787,-1.409 C -6.801,-1.306 -6.665,-1.338 -6.653,-1.3 C -6.614,-1.077 -6.771,-1.05 -6.949,-1.043 C -7.068,-1.115 -6.977,-1.395 -7.099,-1.463 C -7.167,-1.458 -7.273,-1.522 -7.383,-1.544 C -7.458,-1.559 -7.563,-1.511 -7.558,-1.381 C -7.534,-1.344 -7.485,-1.329 -7.437,-1.314 C -7.489,-1.165 -7.484,-0.837 -7.558,-0.758 C -7.561,-0.667 -7.619,-0.377 -7.735,-0.352 C -7.763,-0.424 -7.758,-0.528 -7.843,-0.542 C -7.859,-0.502 -7.931,-0.521 -7.952,-0.488 C -7.911,-0.086 -7.545,0.569 -7.492,0.583 C -7.539,0.705 -7.416,0.943 -7.302,0.948 M -10.295,1.842 C -10.262,1.895 -10.256,1.974 -10.188,1.992 C -10.11,1.919 -10.031,1.849 -9.917,1.815 C -9.862,1.85 -9.799,1.878 -9.767,1.938 C -9.869,2.209 -10.135,2.319 -10.377,2.453 C -10.396,2.333 -10.552,2.292 -10.635,2.384 C -10.73,2.283 -10.849,2.141 -11.053,2.195 C -11.225,1.96 -11.754,2.082 -11.962,1.882 C -12.013,1.528 -12.089,1.197 -12.111,0.813 C -12.039,0.795 -11.941,0.801 -11.908,0.745 C -11.892,0.603 -12.005,0.589 -12.016,0.474 C -11.795,0.357 -11.593,0.526 -11.352,0.515 C -11.26,0.675 -11.169,0.836 -10.932,0.853 C -10.795,1.046 -10.956,1.275 -11.04,1.409 C -10.957,1.43 -10.863,1.508 -10.757,1.463 C -10.741,1.359 -10.811,1.294 -10.784,1.219 C -10.683,1.181 -10.546,1.189 -10.459,1.233 C -10.46,1.411 -10.553,1.571 -10.607,1.653 C -10.492,1.771 -10.309,1.586 -10.214,1.653 C -10.231,1.68 -10.262,1.762 -10.295,1.842 M -0.529,0.759 C -0.399,1.041 -0.732,1.263 -0.895,1.341 C -1.031,1.34 -0.72,0.701 -0.529,0.759 M -5.392,-1.368 C -5.443,-1.297 -5.521,-1.255 -5.514,-1.125 C -5.607,-1.078 -5.921,-0.592 -5.907,-0.392 C -6.005,-0.304 -6.381,0.18 -6.394,0.244 C -6.425,0.368 -6.399,0.474 -6.449,0.474 C -6.576,0.717 -6.72,1.015 -6.922,1.138 C -6.921,1.041 -6.944,0.969 -6.949,0.88 C -6.846,0.886 -6.6,0.183 -6.653,0.121 C -6.6,0.101 -6.464,-0.422 -6.529,-0.502 C -6.423,-0.724 -6.531,-1.162 -6.408,-1.368 C -6.419,-1.42 -6.508,-1.395 -6.529,-1.436 C -6.322,-1.565 -5.905,-1.467 -5.649,-1.49 C -5.662,-1.355 -5.478,-1.361 -5.392,-1.368 M -0.461,0.705 C -0.508,0.62 -0.589,0.57 -0.637,0.488 C -0.606,0.473 -0.828,0.109 -1.043,0.094 C -1.513,-0.358 -2.139,-0.653 -2.804,-0.908 C -2.83,-0.942 -2.946,-0.964 -3.007,-0.962 C -3.03,-1.088 -4.353,-1.468 -4.619,-1.598 C -4.419,-1.614 -4.449,-1.862 -4.363,-1.992 C -4.022,-2.073 -2.661,-1.262 -2.601,-1.273 C -2.511,-1.195 -2.073,-0.943 -1.964,-0.867 C -1.858,-0.792 -1.705,-0.748 -1.584,-0.664 C -1.459,-0.573 -0.919,-0.14 -0.624,-0.15 C -0.607,-0.097 -0.462,0.193 -0.258,0.136 C -0.334,0.317 -0.28,0.629 -0.461,0.705 M -11.407,0.203 C -11.552,0.15 -11.689,0.089 -11.787,-0.014 C -11.644,-0.092 -11.598,-1.299 -11.92,-1.314 C -12.032,-1.32 -12.068,-1.183 -12.205,-1.232 C -12.21,-1.341 -12.113,-1.347 -12.125,-1.463 C -11.896,-1.461 -11.822,-1.611 -11.555,-1.571 C -11.584,-1.826 -11.106,-2.384 -11.014,-2.467 C -10.868,-2.452 -10.781,-2.495 -10.674,-2.52 C -10.549,-2.425 -10.356,-2.396 -10.227,-2.303 C -10.263,-2.213 -10.247,-2.132 -10.242,-2.018 C -10.36,-1.958 -10.363,-1.778 -10.525,-1.761 C -10.599,-1.788 -10.998,-0.991 -11.014,-0.935 C -10.974,-0.817 -10.963,-0.582 -11.081,-0.542 C -11.147,-0.562 -11.127,-0.667 -11.163,-0.719 C -11.274,-0.777 -11.391,-0.699 -11.474,-0.65 C -11.525,-0.511 -11.43,-0.431 -11.419,-0.311 C -11.456,-0.275 -11.323,0.024 -11.407,0.203 M -5.376,-1.613 C -5.513,-1.644 -6.146,-1.765 -6.286,-1.788 C -6.447,-1.814 -6.983,-1.925 -7.099,-1.95 C -7.138,-1.999 -7.082,-2.043 -7.085,-2.1 C -6.762,-2.12 -6.654,-1.908 -6.335,-2.008 C -6.291,-1.966 -6.119,-1.986 -6.054,-1.966 C -5.943,-2.011 -5.52,-1.956 -5.503,-1.825 C -5.123,-1.832 -4.94,-1.507 -5.376,-1.613 M -12.151,-1.95 C -12.202,-1.906 -12.316,-1.857 -12.408,-1.896 C -12.422,-2.02 -12.228,-2.029 -12.328,-2.155 C -12.192,-2.201 -12,-2.463 -12.084,-2.452 C -12.073,-2.573 -12.104,-2.905 -12.165,-3.061 C -12.13,-3.117 -12.084,-3.223 -12.07,-3.292 C -12.035,-3.396 -11.975,-3.525 -12.016,-3.617 C -11.994,-3.694 -11.935,-5.536 -11.935,-5.608 C -12.005,-5.687 -11.968,-7.249 -11.935,-7.37 C -12.373,-7.483 -12.598,-7.183 -13.018,-7.193 C -13.004,-7.543 -12.47,-7.375 -12.435,-7.708 C -12.202,-7.676 -12.056,-8.071 -11.893,-7.816 C -11.95,-7.785 -11.66,-7.499 -11.447,-7.573 C -11.499,-7.444 -11.455,-6.756 -11.338,-6.679 C -11.338,-6.514 -11.342,-6.232 -11.338,-6.164 C -11.438,-5.997 -11.365,-5.266 -11.365,-5.147 C -11.366,-5.061 -11.534,-4.393 -11.447,-4.322 C -11.463,-4.161 -11.407,-3.423 -11.596,-3.319 C -11.528,-3.279 -11.577,-3.216 -11.596,-3.156 C -11.484,-3.047 -11.465,-2.514 -11.407,-2.52 C -11.368,-2.441 -11.432,-2.383 -11.419,-2.29 C -11.502,-2.256 -11.588,-2.222 -11.569,-2.086 C -11.769,-2.02 -11.905,-1.889 -12.097,-1.815 C -12.125,-1.851 -12.092,-1.947 -12.151,-1.95 M -7.641,-2.167 C -7.808,-2.116 -8.053,-2.145 -8.21,-2.208 C -8.263,-2.229 -8.303,-2.277 -8.358,-2.29 C -8.573,-2.331 -9.075,-2.345 -9.09,-2.398 C -9.059,-2.546 -8.947,-2.525 -8.861,-2.516 C -8.763,-2.505 -8.637,-2.433 -8.521,-2.425 C -8.244,-2.404 -8.107,-2.498 -7.931,-2.417 C -7.853,-2.52 -7.577,-2.356 -7.396,-2.358 C -7.384,-2.283 -7.436,-2.259 -7.41,-2.208 C -7.32,-2.177 -7.172,-2.202 -7.168,-2.086 C -7.321,-2.005 -7.557,-2.058 -7.641,-2.167 M -9.578,-2.505 C -10.033,-2.502 -10.033,-2.653 -10.033,-2.671 C -9.95,-2.649 -9.242,-2.668 -9.238,-2.492 C -9.349,-2.501 -9.49,-2.476 -9.578,-2.505 M -15.144,-5.296 C -15.288,-5.195 -15.146,-3.279 -15.144,-3.211 C -15.261,-3.094 -15.131,-2.686 -15.227,-2.52 C -15.261,-2.509 -15.358,-2.49 -15.389,-2.52 C -15.35,-2.654 -15.425,-3.192 -15.416,-3.386 C -15.344,-3.401 -15.381,-3.543 -15.416,-3.576 C -15.347,-3.762 -15.35,-4.79 -15.416,-5.026 C -15.371,-5.075 -15.389,-5.274 -15.429,-5.31 C -15.397,-5.422 -15.412,-6.077 -15.471,-6.217 C -15.437,-6.243 -15.483,-6.856 -15.498,-6.935 C -15.46,-6.979 -15.455,-7.483 -15.471,-7.544 C -15.508,-7.692 -15.435,-8.323 -15.564,-8.411 C -15.508,-8.411 -15.617,-9.385 -15.606,-9.442 C -15.581,-9.517 -15.526,-10.004 -15.578,-10.159 C -15.44,-10.261 -15.425,-10.563 -15.538,-10.701 C -15.473,-10.755 -15.453,-10.892 -15.484,-10.999 C -15.335,-10.978 -15.328,-11.068 -15.35,-10.999 C -15.369,-10.629 -15.411,-10.175 -15.321,-9.848 C -15.35,-9.772 -15.303,-9.29 -15.321,-9.063 C -15.218,-9.061 -15.198,-8.979 -15.09,-8.981 C -15.066,-9.429 -15.107,-9.944 -14.996,-10.309 C -15.298,-10.531 -14.989,-11.024 -15.117,-11.365 C -15.062,-11.611 -15.107,-11.959 -15.037,-12.191 C -15.059,-12.237 -15.12,-12.244 -15.144,-12.286 C -15.144,-12.336 -15.075,-12.315 -15.09,-12.38 C -15.137,-12.457 -15.211,-12.431 -15.254,-12.516 C -15.059,-12.496 -15.166,-12.781 -15.117,-12.91 C -15.171,-12.919 -15.211,-12.944 -15.281,-12.937 C -15.292,-13.025 -15.2,-13.009 -15.227,-13.112 C -15.439,-13.196 -15.704,-13.075 -15.917,-13.112 C -16.01,-13.349 -16.3,-13.389 -16.378,-13.641 C -16.628,-13.631 -16.734,-13.763 -16.811,-13.925 C -16.716,-14.12 -16.637,-13.906 -16.527,-13.898 C -16.424,-13.892 -16.443,-13.984 -16.31,-13.979 C -16.259,-13.817 -16.089,-13.775 -15.971,-13.681 C -15.937,-13.741 -15.822,-13.722 -15.808,-13.804 C -15.908,-13.862 -16.132,-13.796 -16.107,-13.979 C -15.925,-13.931 -15.571,-14.078 -15.592,-13.804 C -15.652,-13.794 -15.687,-13.838 -15.714,-13.791 C -15.721,-13.738 -15.709,-13.706 -15.673,-13.695 C -15.534,-13.762 -15.357,-13.793 -15.144,-13.791 C -15.13,-13.854 -15.177,-13.901 -15.144,-13.939 C -14.991,-13.952 -14.773,-13.902 -14.697,-13.993 L -14.697,-14.128 C -14.616,-14.112 -14.514,-14.114 -14.414,-14.116 C -14.38,-14.229 -14.231,-14.23 -14.223,-14.373 C -14.102,-14.372 -14.032,-14.423 -13.899,-14.413 C -13.898,-14.507 -13.793,-14.497 -13.762,-14.562 C -13.735,-14.676 -13.859,-14.638 -13.844,-14.738 C -13.543,-14.857 -13.034,-14.848 -12.653,-14.806 C -12.647,-14.85 -12.642,-14.893 -12.599,-14.9 C -12.004,-14.813 -11.366,-15.09 -10.865,-14.887 C -10.586,-14.867 -10.406,-14.984 -10.146,-14.941 C -10.096,-14.743 -9.901,-14.872 -9.699,-14.833 C -9.555,-14.805 -8.976,-14.637 -8.819,-14.629 C -8.377,-14.608 -7.983,-14.55 -7.735,-14.765 C -7.783,-14.814 -7.732,-14.884 -7.709,-14.941 C -7.134,-14.937 -6.516,-14.907 -5.947,-14.941 C -5.866,-14.892 -5.44,-14.68 -5.31,-14.725 C -5.29,-14.66 -4.578,-14.66 -4.539,-14.4 C -4.34,-14.358 -4.12,-14.39 -4.145,-14.616 C -4.089,-14.601 -4.022,-14.595 -3.97,-14.576 C -4.025,-14.484 -4.022,-14.311 -3.956,-14.237 C -4.117,-13.993 -4.395,-13.471 -4.401,-13.425 C -4.474,-13.361 -4.626,-13.333 -4.565,-13.18 C -4.816,-13.041 -4.931,-12.697 -5.325,-12.747 C -5.371,-12.701 -5.763,-12.573 -5.879,-12.557 C -6.064,-12.532 -6.275,-12.683 -6.449,-12.543 C -6.545,-12.646 -6.831,-12.559 -6.964,-12.624 C -6.962,-12.722 -6.962,-12.817 -6.99,-12.883 C -6.922,-12.871 -6.881,-12.867 -6.854,-12.922 C -6.841,-12.996 -6.341,-13.837 -6.326,-13.885 C -6.223,-14.171 -6.363,-14.287 -6.435,-14.318 C -6.485,-14.128 -6.939,-13.448 -6.949,-13.383 C -7.026,-13.298 -7.119,-13.226 -7.153,-13.1 C -7.356,-13.129 -7.44,-13.283 -7.709,-13.249 C -7.915,-13.974 -6.8,-14.386 -6.8,-14.427 C -6.723,-14.429 -6.648,-14.319 -6.503,-14.346 C -6.474,-14.38 -6.429,-14.399 -6.422,-14.453 C -6.505,-14.677 -6.877,-14.607 -7.153,-14.602 C -7.251,-14.449 -7.401,-14.345 -7.613,-14.304 C -7.685,-14.059 -8.01,-13.574 -8.034,-13.478 C -8.098,-13.466 -8.063,-13.403 -8.06,-13.329 C -8.357,-13.264 -8.492,-13.039 -8.495,-12.68 C -8.828,-12.465 -9.599,-12.501 -9.808,-12.801 C -9.795,-12.838 -9.725,-12.818 -9.726,-12.868 C -9.827,-13.029 -9.847,-13.272 -10.013,-13.371 C -9.793,-13.724 -10.235,-13.88 -10.227,-14.237 C -10.563,-14.417 -10.993,-15.127 -11.447,-14.67 C -11.465,-14.531 -11.506,-14.413 -11.555,-14.304 C -11.544,-14.234 -11.478,-14.22 -11.474,-14.143 C -11.508,-14.099 -11.582,-14.097 -11.663,-14.101 C -11.727,-14.287 -11.875,-14.386 -12.125,-14.386 C -12.19,-14.248 -12.431,-14.244 -12.449,-14.089 C -12.464,-13.967 -12.351,-13.875 -12.314,-13.75 C -12.475,-13.505 -12.195,-13.07 -12.395,-12.854 C -12.362,-12.776 -12.263,-12.705 -12.314,-12.585 C -12.653,-12.444 -14.297,-12.618 -14.629,-12.543 C -14.822,-12.501 -14.828,-12.325 -14.725,-12.178 C -14.171,-12.5 -12.505,-12.178 -12.557,-12.097 C -12.492,-12.054 -12.362,-11.919 -12.395,-11.867 C -12.493,-11.901 -12.308,-11.699 -12.287,-11.622 C -12.452,-11.58 -12.392,-11.077 -12.381,-10.972 C -12.357,-10.731 -12.495,-9.88 -12.368,-9.793 C -12.428,-9.731 -12.365,-9.477 -12.341,-9.415 C -12.414,-9.384 -12.362,-9.228 -12.395,-9.158 C -12.314,-9.152 -12.385,-8.135 -12.368,-7.938 C -12.674,-7.985 -12.76,-7.744 -13.032,-7.802 C -13.052,-7.719 -13.086,-7.647 -13.126,-7.586 C -13.506,-7.532 -13.722,-7.313 -14.089,-7.247 C -14.131,-7.064 -14.332,-7.038 -14.548,-7.029 C -14.568,-6.814 -14.844,-6.856 -14.996,-6.773 C -15.01,-6.944 -14.961,-7.178 -15.037,-7.288 C -14.928,-7.391 -14.962,-7.662 -15.064,-7.748 C -14.887,-7.911 -15.077,-8.295 -14.969,-8.507 C -14.996,-8.548 -15.037,-8.575 -15.09,-8.588 C -15.053,-8.702 -15.326,-8.972 -15.35,-8.9 C -15.223,-8.696 -15.276,-8.352 -15.321,-8.1 C -15.287,-8.089 -15.325,-8.05 -15.321,-7.979 C -15.24,-7.872 -15.296,-7.113 -15.173,-6.99 C -15.332,-6.914 -15.321,-5.534 -15.144,-5.296 M -7.746,-3.292 C -7.577,-3.385 -7.001,-3.33 -6.83,-3.419 C -6.789,-3.34 -6.865,-2.815 -6.868,-2.736 C -6.849,-2.67 -6.776,-2.658 -6.76,-2.587 C -7.465,-2.177 -7.55,-3.203 -7.746,-3.292 M -11.162,-2.771 C -11.302,-3.094 -10.82,-2.889 -10.752,-2.897 C -10.696,-2.844 -10.235,-2.757 -10.242,-2.642 C -10.378,-2.635 -11.109,-2.692 -11.162,-2.771 M -10.025,-5.608 C -9.934,-5.418 -9.84,-5.234 -9.659,-5.134 C -9.534,-4.776 -9.304,-4.523 -9.048,-4.293 C -9.093,-4.252 -9.117,-4.19 -9.131,-4.118 C -9.06,-4.095 -9.012,-4.049 -8.94,-4.023 C -8.88,-3.717 -8.759,-3.473 -8.441,-3.428 C -8.529,-3.188 -8.358,-3.027 -8.291,-2.858 C -9.008,-2.833 -9.508,-3.022 -10.025,-3.197 C -10.287,-3.05 -10.523,-3.466 -10.77,-3.224 C -10.875,-3.348 -11.116,-3.309 -11.163,-3.482 C -11.199,-3.622 -11.088,-3.733 -11.122,-3.888 C -10.954,-3.786 -10.605,-3.584 -10.39,-3.78 C -10.462,-3.847 -10.549,-3.965 -10.607,-4.105 C -10.659,-4.228 -10.736,-4.384 -10.757,-4.497 C -10.804,-4.772 -10.746,-5.015 -10.607,-5.162 C -10.633,-5.208 -10.713,-5.2 -10.715,-5.27 C -10.653,-5.315 -10.592,-5.814 -10.499,-5.974 C -10.286,-5.932 -10.324,-5.624 -10.025,-5.608 M -9.253,-7.6 C -9.216,-7.55 -9.332,-7.022 -9.265,-6.692 C -9.311,-6.646 -9.128,-6.323 -9.103,-6.204 C -8.945,-6.11 -8.753,-5.916 -8.752,-5.825 C -8.671,-5.792 -8.636,-5.714 -8.602,-5.635 C -8.489,-5.652 -8.436,-5.732 -8.4,-5.825 C -8.462,-5.883 -8.398,-6.045 -8.426,-6.11 C -8.302,-6.143 -8.317,-6.317 -8.291,-6.448 C -8.26,-6.476 -8.204,-6.658 -8.263,-6.679 C -8.552,-6.718 -8.446,-6.364 -8.67,-6.339 C -8.771,-6.465 -8.643,-6.623 -8.588,-6.718 C -8.618,-6.932 -8.461,-7.158 -8.495,-7.166 C -8.461,-7.261 -8.331,-7.336 -8.412,-7.464 C -8.296,-7.562 -7.939,-8.314 -7.843,-8.548 C -7.91,-8.549 -7.987,-8.541 -8.034,-8.561 C -8.058,-8.477 -8.155,-8.465 -8.182,-8.385 C -8.206,-8.316 -8.119,-8.316 -8.155,-8.277 C -8.202,-8.247 -8.783,-7.249 -8.806,-7.193 C -8.739,-7.087 -8.819,-6.976 -8.832,-6.868 C -9.114,-6.855 -8.855,-7.228 -9.022,-7.329 C -8.923,-7.519 -8.83,-7.714 -8.844,-8.019 C -8.771,-8.125 -8.678,-8.277 -8.711,-8.331 C -8.596,-8.361 -8.539,-8.472 -8.575,-8.615 C -8.514,-8.657 -8.056,-8.956 -8.047,-9.008 C -8.025,-9.128 -8.14,-9.126 -8.21,-9.211 C -8.105,-9.553 -7.577,-9.473 -7.545,-9.889 C -7.422,-9.875 -7.4,-10.029 -7.396,-10.092 C -7.641,-10.156 -7.729,-9.957 -7.98,-9.984 C -8.03,-9.801 -8.193,-9.726 -8.331,-9.632 C -8.334,-9.726 -8.394,-9.768 -8.412,-9.848 C -8.37,-9.883 -7.995,-10.255 -8.168,-10.43 C -8.089,-10.467 -8.018,-10.608 -8.006,-10.661 C -7.903,-10.69 -7.849,-10.862 -7.911,-10.972 C -8.027,-11.028 -8.158,-10.929 -8.101,-10.809 C -8.19,-10.813 -8.238,-10.775 -8.317,-10.769 C -8.293,-10.884 -8.186,-10.917 -8.155,-11.026 C -8.216,-11.06 -8.223,-11.148 -8.317,-11.149 C -8.357,-11.093 -8.417,-10.998 -8.521,-11.053 C -8.508,-11.154 -8.416,-11.293 -8.534,-11.338 C -8.602,-11.338 -8.617,-11.285 -8.67,-11.27 C -8.75,-11.29 -8.758,-11.422 -8.832,-11.42 C -8.84,-11.419 -8.919,-11.328 -8.94,-11.311 C -9.042,-11.234 -9.129,-11.2 -9.211,-11.135 C -9.25,-11.105 -9.289,-11.037 -9.321,-11.068 C -9.17,-11.445 -8.763,-11.695 -8.237,-11.609 C -8.182,-11.65 -8.145,-11.706 -8.088,-11.745 C -8.006,-11.707 -7.875,-11.721 -7.789,-11.691 C -7.68,-11.902 -7.303,-11.786 -7.153,-11.691 C -7.168,-11.537 -7.138,-11.426 -7.057,-11.365 C -7.102,-11.36 -7.176,-11.383 -7.18,-11.338 C -7.159,-11.214 -7.156,-11.051 -7.207,-10.959 C -7.177,-10.906 -7.11,-10.892 -7.126,-10.796 C -7.201,-10.782 -7.214,-10.348 -7.193,-10.228 C -7.264,-10.217 -7.319,-9.444 -7.343,-9.401 C -7.368,-9.133 -7.229,-9.027 -7.193,-8.819 C -7.222,-8.775 -7.247,-8.065 -7.168,-7.789 C -7.125,-7.782 -7.09,-7.765 -7.057,-7.748 C -7.011,-7.639 -6.976,-7.344 -6.949,-7.247 C -6.993,-7.186 -7.063,-6.518 -6.976,-6.258 C -7.192,-5.971 -6.945,-4.768 -7.018,-4.538 C -6.914,-4.52 -6.847,-4.464 -6.733,-4.457 C -6.728,-4.338 -6.63,-4.334 -6.637,-4.24 C -6.648,-4.125 -6.987,-3.896 -6.8,-3.725 C -6.927,-3.743 -6.971,-3.679 -7.031,-3.63 C -7.248,-3.676 -7.532,-3.74 -7.721,-3.63 C -7.859,-3.782 -7.947,-3.983 -8.114,-4.105 C -8.068,-4.104 -8.074,-4.155 -8.074,-4.2 C -8.228,-4.32 -8.298,-4.525 -8.495,-4.607 C -8.461,-4.811 -9.134,-5.802 -9.469,-5.785 C -9.478,-5.865 -9.58,-6.026 -9.659,-6.028 C -9.747,-6.466 -10.265,-6.478 -10.432,-6.841 C -10.474,-6.85 -10.471,-6.817 -10.511,-6.827 C -10.562,-6.945 -10.661,-7.013 -10.702,-7.139 C -10.668,-7.168 -10.606,-7.344 -10.62,-7.396 C -10.412,-7.437 -10.39,-7.801 -10.472,-8.005 C -10.373,-8.02 -10.352,-8.672 -10.418,-8.683 C -10.454,-8.747 -10.444,-8.856 -10.444,-8.954 C -10.377,-8.949 -10.643,-9.265 -10.674,-9.294 C -10.619,-9.407 -10.543,-9.947 -10.635,-9.957 C -10.758,-10.101 -10.543,-10.25 -10.58,-10.39 C -10.324,-10.478 -10.363,-10.907 -10.444,-11.162 C -10.315,-11.295 -10.28,-11.506 -10.35,-11.704 C -10.371,-11.765 -10.441,-11.815 -10.444,-11.867 C -10.449,-11.955 -10.333,-12.012 -10.309,-12.097 C -10.256,-12.274 -10.407,-12.344 -10.472,-12.449 C -10.459,-12.504 -10.374,-12.487 -10.39,-12.57 C -10.157,-12.608 -9.907,-12.562 -9.821,-12.408 C -9.861,-12.185 -9.859,-11.958 -9.767,-11.772 C -9.93,-11.568 -9.656,-11.339 -9.767,-11.108 C -9.718,-11.043 -9.655,-10.996 -9.605,-10.932 C -9.668,-10.822 -9.465,-9.497 -9.348,-9.347 C -9.368,-9.326 -9.359,-9.277 -9.361,-9.238 C -9.327,-9.155 -9.258,-9.107 -9.225,-9.021 C -9.236,-8.979 -9.205,-8.86 -9.158,-8.859 C -9.19,-8.603 -9.252,-7.689 -9.253,-7.6 M -13.086,-7.22 C -13.093,-7.177 -13.077,-7.157 -13.073,-7.125 C -13.192,-7.095 -13.262,-7.017 -13.411,-7.017 C -13.41,-7.192 -13.241,-7.2 -13.086,-7.22 M -11.826,-8.196 C -11.835,-8.316 -11.745,-8.339 -11.663,-8.371 C -11.561,-8.316 -11.472,-8.247 -11.447,-8.115 C -11.609,-8.056 -11.681,-8.192 -11.826,-8.196 M -11.419,-8.805 C -11.423,-8.615 -11.74,-8.584 -11.799,-8.778 C -11.702,-8.89 -11.814,-8.995 -11.853,-9.09 C -11.765,-9.14 -11.673,-9.188 -11.514,-9.171 C -11.582,-9.007 -11.419,-8.913 -11.419,-8.805 M -11.392,-9.659 C -11.299,-9.723 -11.739,-9.943 -11.799,-10.025 C -11.761,-10.057 -11.841,-10.18 -11.853,-10.268 C -11.744,-10.31 -11.738,-12.229 -11.772,-12.326 C -11.79,-12.381 -11.848,-12.39 -11.826,-12.435 C -11.787,-12.435 -11.017,-12.293 -10.851,-12.326 C -10.831,-12.281 -10.769,-12.274 -10.77,-12.205 C -10.808,-12.189 -10.86,-12.186 -10.878,-12.151 C -10.894,-11.799 -11.023,-10.735 -10.919,-10.633 C -11.001,-10.62 -11.109,-9.812 -11.053,-9.793 C -11.157,-9.73 -11.092,-9.536 -11.053,-9.455 C -11.109,-9.374 -11.126,-9.257 -11.244,-9.238 C -11.299,-9.322 -11.312,-9.619 -11.392,-9.659 M -9.483,-11.555 C -9.589,-11.67 -9.526,-11.955 -9.619,-12.083 C -9.496,-12.441 -8.879,-12.326 -8.441,-12.326 C -8.472,-12.22 -8.48,-12.113 -8.467,-11.989 C -8.608,-11.959 -8.659,-11.837 -8.779,-11.785 C -9.096,-11.886 -9.189,-11.563 -9.483,-11.555 M -8.331,-12.557 C -8.248,-12.699 -8.03,-12.707 -8.006,-12.91 C -7.808,-12.867 -7.594,-12.843 -7.343,-12.854 C -7.331,-12.749 -7.247,-12.715 -7.234,-12.612 C -7.4,-12.597 -7.517,-12.109 -7.574,-12.002 C -7.74,-12.088 -7.965,-12.012 -8.128,-11.974 C -8.163,-12.071 -8.15,-12.578 -8.331,-12.557 M -10.878,-12.868 C -10.84,-12.822 -10.722,-12.753 -10.729,-12.706 C -10.738,-12.653 -10.968,-12.56 -11.04,-12.543 C -11.196,-12.509 -11.365,-12.541 -11.447,-12.612 C -11.356,-12.68 -11.496,-12.868 -11.38,-12.937 C -11.444,-12.936 -11.48,-12.961 -11.528,-12.977 C -11.502,-13.104 -11.527,-13.198 -11.582,-13.275 C -11.511,-13.357 -11.468,-13.468 -11.474,-13.627 C -11.407,-13.619 -11.407,-13.677 -11.352,-13.681 C -11.364,-13.638 -11.332,-13.64 -11.312,-13.627 C -11.327,-13.566 -11.334,-13.498 -11.365,-13.451 C -11.201,-13.435 -11.205,-13.251 -11.04,-13.235 C -11.018,-13.104 -10.947,-12.955 -10.878,-12.868 M -10.715,-13.208 C -10.511,-13.22 -10.427,-13.353 -10.282,-13.425 C -10.15,-13.331 -10.103,-13.152 -10.065,-12.964 C -10.345,-12.971 -10.79,-12.752 -10.715,-13.208 M -11.081,-13.939 C -11.216,-13.949 -11.278,-14.401 -11.244,-14.508 C -11.146,-14.46 -11.073,-14.553 -10.986,-14.562 C -10.776,-14.28 -10.411,-14.153 -10.269,-13.804 C -10.453,-13.681 -11.302,-13.367 -11.081,-13.939" />
        </g>
        <g
           transform="translate(846.7191,670.9474)"
           id="g5954">
          <path
             id="path5956"
             style="fill:#ffffff;fill-opacity:1;fill-rule:nonzero;stroke:none"
             d="M 0,0 C -0.113,-0.004 -0.144,0.072 -0.217,0.109 C -0.464,0.063 -0.733,-0.034 -0.866,-0.149 C -0.961,-0.13 -0.959,0.039 -1.097,-0.027 C -1.013,0.183 -0.664,0.126 -0.582,0.338 C -0.29,0.395 0.169,0.319 0,0" />
        </g>
        <g
           transform="translate(846.5036,670.473)"
           id="g5958">
          <path
             id="path5960"
             style="fill:#ffffff;fill-opacity:1;fill-rule:nonzero;stroke:none"
             d="M 0,0 C -0.219,-0.001 -0.395,0.04 -0.543,0.11 C -0.544,0.227 -0.438,0.24 -0.381,0.298 C -0.187,0.258 0.16,0.521 0.162,0.231 C 0.162,0.105 0.049,0.102 0,0" />
        </g>
        <g
           transform="translate(827.509,644.1002)"
           id="g5962">
          <path
             id="path5964"
             style="fill:#ffffff;fill-opacity:1;fill-rule:nonzero;stroke:none"
             d="M 0,0 C 0.589,0.56 1.362,0.488 1.893,-0.07 C 2.424,-0.628 2.459,-1.403 1.869,-1.964 L 0.326,-3.434 L -0.087,-2.999 L 1.443,-1.542 C 1.684,-1.313 1.877,-0.88 1.479,-0.464 C 1.082,-0.047 0.64,-0.218 0.4,-0.447 L -1.131,-1.904 L -1.544,-1.47 L 0,0 z" />
        </g>
      </g>
    </g>
    <g
       transform="matrix(1.25,0,0,-1.25,298.30938,368.54152)"
       id="g5966">
      <path
         id="path5968"
         style="fill:#ffffff;fill-opacity:1;fill-rule:nonzero;stroke:none"
         d="M 0,0 L -0.442,0.66 L 0.723,3.408 L 0.725,3.422 L 0.731,3.414 L 0.717,3.417 L -1.359,2.021 L -1.693,2.519 L 1.101,4.396 L 1.526,3.765 L 0.312,0.943 L 0.317,0.935 L 2.461,2.377 L 2.795,1.879 L 0,0 z" />
    </g>
    <g
       transform="matrix(1.25,0,0,-1.25,295.54438,364.11727)"
       id="g5970">
      <path
         id="path5972"
         style="fill:#ffffff;fill-opacity:1;fill-rule:nonzero;stroke:none"
         d="M 0,0 L -0.274,0.535 L 2.728,2.067 L 3,1.533 L 0,0 z" />
    </g>
    <g
       transform="matrix(1.25,0,0,-1.25,294.77038,362.68302)"
       id="g5974">
      <path
         id="path5976"
         style="fill:#ffffff;fill-opacity:1;fill-rule:nonzero;stroke:none"
         d="M 0,0 L -0.247,0.644 L 1.8,2.412 L -0.915,2.385 L -1.147,2.99 L 2.486,2.925 L 2.671,2.44 L 0,0 z" />
    </g>
    <g
       transform="matrix(1.25,0,0,-1.25,293.07438,357.91564)"
       id="g5978">
      <path
         id="path5980"
         style="fill:#ffffff;fill-opacity:1;fill-rule:nonzero;stroke:none"
         d="M 0,0 L -0.492,2.177 L 0.036,2.296 L 0.396,0.704 L 1.204,0.887 L 0.863,2.395 L 1.391,2.514 L 1.732,1.007 L 2.624,1.208 L 2.245,2.883 L 2.774,3.003 L 3.285,0.743 L 0,0 z" />
    </g>
    <g
       transform="matrix(1.25,0,0,-1.25,-733.10536,1173.1023)"
       id="g5982">
      <g
         clip-path="url(#clipPath5986)"
         id="g5984">
        <g
           transform="translate(820.2803,655.4666)"
           id="g5990">
          <path
             id="path5992"
             style="fill:#ffffff;fill-opacity:1;fill-rule:nonzero;stroke:none"
             d="M 0,0 L -0.097,1.166 C -0.151,1.811 0.007,2.436 0.76,2.498 C 1.243,2.539 1.622,2.289 1.735,1.797 L 3.144,2.811 L 3.204,2.091 L 1.847,1.195 L 1.883,0.759 L 3.305,0.878 L 3.355,0.281 L 0,0 z M 1.333,1.181 C 1.305,1.517 1.243,1.908 0.808,1.872 C 0.409,1.838 0.393,1.465 0.419,1.157 L 0.462,0.64 L 1.372,0.716 L 1.333,1.181 z" />
        </g>
        <g
           transform="translate(820.8833,660.509)"
           id="g5994">
          <path
             id="path5996"
             style="fill:#ffffff;fill-opacity:1;fill-rule:nonzero;stroke:none"
             d="M 0,0 C -0.186,-0.12 -0.283,-0.343 -0.295,-0.576 C -0.308,-0.852 -0.198,-1.133 0.111,-1.148 C 0.786,-1.181 0.478,0.434 1.675,0.377 C 2.398,0.341 2.723,-0.247 2.691,-0.907 C 2.67,-1.326 2.522,-1.728 2.181,-1.988 L 1.765,-1.514 C 1.995,-1.378 2.136,-1.133 2.148,-0.867 C 2.162,-0.591 2.026,-0.269 1.717,-0.255 C 0.98,-0.219 1.326,-1.837 0.123,-1.778 C -0.571,-1.744 -0.863,-1.111 -0.833,-0.488 C -0.817,-0.136 -0.699,0.21 -0.44,0.46 L 0,0 z" />
        </g>
      </g>
    </g>
    <g
       transform="matrix(1.25,0,0,-1.25,292.28688,345.70102)"
       id="g5998">
      <path
         id="path6000"
         style="fill:#ffffff;fill-opacity:1;fill-rule:nonzero;stroke:none"
         d="M 0,0 L 0.086,0.593 L 3.418,0.111 L 3.332,-0.482 L 0,0 z" />
    </g>
    <g
       transform="matrix(1.25,0,0,-1.25,293.46878,342.97202)"
       id="g6002">
      <path
         id="path6004"
         style="fill:#ffffff;fill-opacity:1;fill-rule:nonzero;stroke:none"
         d="M 0,0 L -0.246,-1.003 L -0.771,-0.874 L -0.14,1.713 L 0.387,1.584 L 0.143,0.583 L 2.887,-0.088 L 2.744,-0.669 L 0,0 z" />
    </g>
    <g
       transform="matrix(1.25,0,0,-1.25,293.92918,339.07602)"
       id="g6006">
      <path
         id="path6008"
         style="fill:#ffffff;fill-opacity:1;fill-rule:nonzero;stroke:none"
         d="M 0,0 L 0.185,0.484 L 3.847,0.639 L 3.603,-0.001 L 2.771,-0.02 L 2.25,-1.383 L 2.862,-1.943 L 2.623,-2.569 L 0,0 z M 2.217,-0.032 L 0.753,-0.027 L 1.844,-1.009 L 2.217,-0.032 z" />
    </g>
    <g
       transform="matrix(1.25,0,0,-1.25,-733.10536,1173.1023)"
       id="g6010">
      <g
         clip-path="url(#clipPath6014)"
         id="g6012">
        <g
           transform="translate(824.1785,670.906)"
           id="g6018">
          <path
             id="path6020"
             style="fill:#ffffff;fill-opacity:1;fill-rule:nonzero;stroke:none"
             d="M 0,0 C -0.22,-0.023 -0.407,-0.181 -0.521,-0.385 C -0.654,-0.625 -0.681,-0.927 -0.412,-1.078 C 0.178,-1.408 0.622,0.175 1.668,-0.41 C 2.298,-0.763 2.327,-1.434 2.004,-2.01 C 1.801,-2.375 1.488,-2.669 1.067,-2.75 L 0.905,-2.143 C 1.172,-2.123 1.408,-1.966 1.538,-1.733 C 1.673,-1.492 1.694,-1.144 1.423,-0.993 C 0.78,-0.633 0.369,-2.234 -0.681,-1.647 C -1.287,-1.307 -1.268,-0.61 -0.964,-0.066 C -0.791,0.242 -0.534,0.499 -0.189,0.607 L 0,0 z" />
        </g>
      </g>
    </g>
    <g
       transform="matrix(1.25,0,0,-1.25,298.60718,330.59039)"
       id="g6022">
      <path
         id="path6024"
         style="fill:#ffffff;fill-opacity:1;fill-rule:nonzero;stroke:none"
         d="M 0,0 L 0.619,0.673 L 2.965,-0.262 L 1.842,2.005 L 2.454,2.671 L 4.936,0.39 L 4.55,-0.031 L 2.489,1.864 L 2.482,1.856 L 3.851,-0.791 L 3.568,-1.099 L 0.813,0.04 L 0.807,0.034 L 2.869,-1.86 L 2.481,-2.28 L 0,0 z" />
    </g>
    <g
       transform="matrix(1.25,0,0,-1.25,304.08848,325.3089)"
       id="g6026">
      <path
         id="path6028"
         style="fill:#ffffff;fill-opacity:1;fill-rule:nonzero;stroke:none"
         d="M 0,0 L 0.414,0.312 L 3.598,-1.508 L 3.05,-1.92 L 2.337,-1.492 L 1.169,-2.371 L 1.388,-3.169 L 0.853,-3.572 L 0,0 z M 1.86,-1.208 L 0.623,-0.424 L 1.024,-1.837 L 1.86,-1.208 z" />
    </g>
    <g
       transform="matrix(1.25,0,0,-1.25,-733.10536,1173.1023)"
       id="g6030">
      <g
         clip-path="url(#clipPath6034)"
         id="g6032">
        <g
           transform="translate(836.2341,678.5096)"
           id="g6038">
          <path
             id="path6040"
             style="fill:#ffffff;fill-opacity:1;fill-rule:nonzero;stroke:none"
             d="M 0,0 C -0.262,-0.383 -0.624,-0.698 -1.085,-0.936 C -2.006,-1.411 -2.989,-1.127 -3.471,-0.194 C -3.967,0.765 -3.631,1.731 -2.71,2.207 C -2.254,2.443 -1.794,2.558 -1.338,2.44 L -1.524,1.841 C -1.811,1.927 -2.157,1.883 -2.456,1.728 C -3.073,1.409 -3.238,0.723 -2.931,0.128 C -2.601,-0.51 -1.946,-0.771 -1.329,-0.453 C -1.059,-0.313 -0.84,-0.135 -0.708,0.068 L -1.074,0.773 L -1.686,0.455 L -1.935,0.937 L -0.791,1.529 L 0,0 z" />
        </g>
      </g>
    </g>
    <g
       transform="matrix(1.25,0,0,-1.25,311.68278,321.02665)"
       id="g6042">
      <path
         id="path6044"
         style="fill:#ffffff;fill-opacity:1;fill-rule:nonzero;stroke:none"
         d="M 0,0 L 0.562,0.211 L 1.744,-2.944 L 1.183,-3.154 L 0,0 z" />
    </g>
    <g
       transform="matrix(1.25,0,0,-1.25,-733.10536,1173.1023)"
       id="g6046">
      <g
         clip-path="url(#clipPath6050)"
         id="g6048">
        <g
           transform="translate(839.1766,681.9569)"
           id="g6054">
          <path
             id="path6056"
             style="fill:#ffffff;fill-opacity:1;fill-rule:nonzero;stroke:none"
             d="M 0,0 C -0.171,0.141 -0.413,0.164 -0.639,0.104 C -0.905,0.033 -1.14,-0.158 -1.06,-0.456 C -0.884,-1.109 0.559,-0.323 0.871,-1.48 C 1.058,-2.179 0.598,-2.667 -0.041,-2.838 C -0.445,-2.947 -0.873,-2.929 -1.225,-2.683 L -0.901,-2.144 C -0.702,-2.322 -0.424,-2.379 -0.168,-2.311 C 0.099,-2.24 0.363,-2.01 0.282,-1.712 C 0.091,-0.999 -1.343,-1.824 -1.654,-0.661 C -1.835,0.01 -1.322,0.482 -0.72,0.644 C -0.38,0.735 -0.014,0.729 0.303,0.559 L 0,0 z" />
        </g>
      </g>
    </g>
    <g
       transform="matrix(1.25,0,0,-1.25,318.41188,319.94214)"
       id="g6058">
      <path
         id="path6060"
         style="fill:#ffffff;fill-opacity:1;fill-rule:nonzero;stroke:none"
         d="M 0,0 L -1.023,-0.139 L -1.095,0.398 L 1.544,0.756 L 1.617,0.219 L 0.594,0.081 L 0.974,-2.719 L 0.38,-2.8 L 0,0 z" />
    </g>
    <g
       transform="matrix(1.25,0,0,-1.25,-733.10536,1173.1023)"
       id="g6062">
      <g
         clip-path="url(#clipPath6066)"
         id="g6064">
        <g
           transform="translate(843.5754,683.3126)"
           id="g6070">
          <path
             id="path6072"
             style="fill:#ffffff;fill-opacity:1;fill-rule:nonzero;stroke:none"
             d="M 0,0 L 1.17,0.019 C 1.817,0.029 2.429,-0.169 2.443,-0.926 C 2.45,-1.412 2.175,-1.774 1.678,-1.853 L 2.598,-3.327 L 1.872,-3.339 L 1.069,-1.925 L 0.632,-1.932 L 0.655,-3.359 L 0.055,-3.37 L 0,0 z M 1.089,-1.411 C 1.427,-1.404 1.822,-1.37 1.814,-0.932 C 1.808,-0.532 1.436,-0.491 1.126,-0.496 L 0.607,-0.504 L 0.623,-1.418 L 1.089,-1.411 z" />
        </g>
        <g
           transform="translate(848.7634,683.0958)"
           id="g6074">
          <path
             id="path6076"
             style="fill:#ffffff;fill-opacity:1;fill-rule:nonzero;stroke:none"
             d="M 0,0 C 1.041,-0.151 1.662,-0.965 1.486,-2.032 C 1.319,-3.071 0.472,-3.647 -0.57,-3.496 C -1.594,-3.329 -2.213,-2.515 -2.045,-1.476 C -1.872,-0.41 -1.024,0.167 0,0 M -0.478,-2.962 C 0.212,-3.074 0.755,-2.622 0.869,-1.913 C 0.979,-1.249 0.608,-0.65 -0.084,-0.537 C -0.769,-0.425 -1.311,-0.877 -1.419,-1.539 C -1.534,-2.249 -1.164,-2.85 -0.478,-2.962" />
        </g>
        <g
           transform="translate(851.6041,682.397)"
           id="g6078">
          <path
             id="path6080"
             style="fill:#ffffff;fill-opacity:1;fill-rule:nonzero;stroke:none"
             d="M 0,0 L 1.109,-0.375 C 1.722,-0.583 2.231,-0.976 1.989,-1.693 C 1.834,-2.153 1.454,-2.4 0.957,-2.308 L 1.327,-4.005 L 0.643,-3.774 L 0.359,-2.172 L -0.055,-2.031 L -0.511,-3.384 L -1.08,-3.191 L 0,0 z M 0.552,-1.694 C 0.872,-1.802 1.256,-1.901 1.395,-1.486 C 1.525,-1.107 1.187,-0.944 0.895,-0.845 L 0.402,-0.678 L 0.11,-1.544 L 0.552,-1.694 z" />
        </g>
        <g
           transform="translate(856.3203,678.0659)"
           id="g6082">
          <path
             id="path6084"
             style="fill:#ffffff;fill-opacity:1;fill-rule:nonzero;stroke:none"
             d="M 0,0 C -0.375,-0.722 -1.127,-0.906 -1.812,-0.552 C -2.496,-0.198 -2.782,0.523 -2.408,1.245 L -1.429,3.138 L -0.898,2.862 L -1.868,0.987 C -2.02,0.692 -2.061,0.22 -1.55,-0.044 C -1.039,-0.309 -0.678,-0.004 -0.524,0.292 L 0.445,2.168 L 0.978,1.892 L 0,0 z" />
        </g>
      </g>
    </g>
    <g
       transform="matrix(1.25,0,0,-1.25,340.00448,324.04089)"
       id="g6086">
      <path
         id="path6088"
         style="fill:#ffffff;fill-opacity:1;fill-rule:nonzero;stroke:none"
         d="M 0,0 L 0.721,-0.562 L -0.019,-2.977 L 2.149,-1.673 L 2.862,-2.229 L 0.791,-4.887 L 0.341,-4.536 L 2.06,-2.328 L 2.053,-2.322 L -0.473,-3.902 L -0.805,-3.645 L 0.107,-0.807 L 0.099,-0.802 L -1.62,-3.01 L -2.071,-2.659 L 0,0 z" />
    </g>
    <g
       transform="matrix(1.25,0,0,-1.25,-733.10536,1173.1023)"
       id="g6090">
      <g
         clip-path="url(#clipPath6094)"
         id="g6092">
        <g
           transform="translate(862.8484,671.4042)"
           id="g6098">
          <path
             id="path6100"
             style="fill:#ffffff;fill-opacity:1;fill-rule:nonzero;stroke:none"
             d="M 0,0 L -0.182,-1.06 L -0.634,-0.478 L -0.546,0.041 C -0.965,0.059 -1.267,0.2 -1.528,0.538 C -1.892,1.008 -1.952,1.653 -1.444,2.047 C -1.086,2.323 -0.622,2.274 -0.25,2.05 C -0.193,2.365 -0.135,2.626 0.127,2.829 C 0.563,3.167 1.061,2.975 1.372,2.572 C 1.681,2.173 1.76,1.668 1.322,1.331 C 0.996,1.078 0.563,1.17 0.225,1.328 L 0.093,0.542 L 0.774,0.593 L 1.184,0.063 L 0,0 z M -0.296,1.557 C -0.538,1.653 -0.804,1.747 -1.034,1.569 C -1.267,1.389 -1.285,1.063 -1.11,0.838 C -0.95,0.631 -0.705,0.586 -0.468,0.552 L -0.296,1.557 z M 0.457,2.363 C 0.318,2.255 0.285,2.013 0.265,1.811 C 0.467,1.72 0.756,1.613 0.951,1.765 C 1.095,1.875 1.098,2.089 0.972,2.25 C 0.84,2.423 0.616,2.486 0.457,2.363" />
        </g>
        <g
           transform="translate(866.6808,668.3599)"
           id="g6102">
          <path
             id="path6104"
             style="fill:#ffffff;fill-opacity:1;fill-rule:nonzero;stroke:none"
             d="M 0,0 C 0.109,0.194 0.087,0.437 -0.013,0.648 C -0.132,0.896 -0.362,1.093 -0.641,0.959 C -1.251,0.67 -0.216,-0.608 -1.298,-1.125 C -1.952,-1.436 -2.515,-1.072 -2.799,-0.474 C -2.98,-0.095 -3.04,0.329 -2.862,0.719 L -2.272,0.499 C -2.411,0.27 -2.418,-0.013 -2.304,-0.253 C -2.185,-0.503 -1.913,-0.721 -1.634,-0.587 C -0.967,-0.271 -2.036,0.991 -0.95,1.508 C -0.322,1.808 0.236,1.389 0.504,0.826 C 0.655,0.507 0.716,0.146 0.605,-0.196 L 0,0 z" />
        </g>
        <g
           transform="translate(867.8807,664.8018)"
           id="g6106">
          <path
             id="path6108"
             style="fill:#ffffff;fill-opacity:1;fill-rule:nonzero;stroke:none"
             d="M 0,0 C 0.176,0.314 0.176,0.553 0.105,0.776 C -0.103,1.44 -0.749,1.719 -1.389,1.519 C -2.074,1.304 -2.444,0.704 -2.237,0.04 C -2.156,-0.218 -1.959,-0.43 -1.619,-0.559 L -1.807,-1.137 C -2.298,-0.971 -2.608,-0.59 -2.757,-0.118 C -3.067,0.872 -2.618,1.792 -1.613,2.107 C -0.583,2.431 0.313,1.932 0.623,0.943 C 0.759,0.508 0.735,0.091 0.468,-0.342 L 0,0 z" />
        </g>
        <g
           transform="translate(869.3047,661.9887)"
           id="g6110">
          <path
             id="path6112"
             style="fill:#ffffff;fill-opacity:1;fill-rule:nonzero;stroke:none"
             d="M 0,0 C 0.159,-1.039 -0.44,-1.868 -1.51,-2.011 C -2.551,-2.151 -3.347,-1.51 -3.505,-0.471 C -3.644,0.557 -3.046,1.384 -2.005,1.526 C -0.935,1.669 -0.138,1.028 0,0 M -2.968,-0.404 C -2.875,-1.096 -2.286,-1.483 -1.575,-1.387 C -0.909,-1.298 -0.443,-0.769 -0.537,-0.076 C -0.629,0.612 -1.218,0.997 -1.883,0.909 C -2.594,0.813 -3.06,0.284 -2.968,-0.404" />
        </g>
      </g>
    </g>
    <g
       transform="matrix(1.25,0,0,-1.25,353.71418,349.20627)"
       id="g6114">
      <path
         id="path6116"
         style="fill:#ffffff;fill-opacity:1;fill-rule:nonzero;stroke:none"
         d="M 0,0 L -0.01,-0.6 L -2.836,-0.553 L -2.861,-1.986 L -3.402,-1.977 L -3.369,0.055 L 0,0 z" />
    </g>
    <g
       transform="matrix(1.25,0,0,-1.25,353.38028,354.21677)"
       id="g6118">
      <path
         id="path6120"
         style="fill:#ffffff;fill-opacity:1;fill-rule:nonzero;stroke:none"
         d="M 0,0 L -0.078,-0.513 L -3.628,-1.431 L -3.522,-0.755 L -2.714,-0.563 L -2.491,0.881 L -3.206,1.299 L -3.103,1.961 L 0,0 z M -2.174,-0.434 L -0.74,-0.131 L -2.014,0.6 L -2.174,-0.434 z" />
    </g>
    <g
       transform="matrix(1.25,0,0,-1.25,-733.10536,1173.1023)"
       id="g6122">
      <g
         clip-path="url(#clipPath6126)"
         id="g6124">
        <g
           transform="translate(868.6448,652.3013)"
           id="g6130">
          <path
             id="path6132"
             style="fill:#ffffff;fill-opacity:1;fill-rule:nonzero;stroke:none"
             d="M 0,0 L -0.352,-1.117 C -0.547,-1.735 -0.929,-2.253 -1.651,-2.025 C -2.116,-1.878 -2.372,-1.504 -2.289,-1.005 L -3.98,-1.41 L -3.763,-0.721 L -2.164,-0.406 L -2.032,0.013 L -3.395,0.441 L -3.214,1.014 L 0,0 z M -1.683,-0.587 C -1.784,-0.91 -1.877,-1.295 -1.459,-1.427 C -1.077,-1.547 -0.92,-1.208 -0.826,-0.912 L -0.671,-0.417 L -1.542,-0.142 L -1.683,-0.587 z" />
        </g>
      </g>
    </g>
    <g
       transform="matrix(1.25,0,0,-1.25,351.33238,361.65827)"
       id="g6134">
      <path
         id="path6136"
         style="fill:#ffffff;fill-opacity:1;fill-rule:nonzero;stroke:none"
         d="M 0,0 L -0.238,-0.551 L -3.333,0.786 L -3.095,1.337 L 0,0 z" />
    </g>
    <g
       transform="matrix(1.25,0,0,-1.25,-733.10536,1173.1023)"
       id="g6138">
      <g
         clip-path="url(#clipPath6142)"
         id="g6140">
        <g
           transform="translate(863.6772,646.3032)"
           id="g6146">
          <path
             id="path6148"
             style="fill:#ffffff;fill-opacity:1;fill-rule:nonzero;stroke:none"
             d="M 0,0 C -0.707,0.404 -0.859,1.165 -0.475,1.833 C -0.092,2.504 0.639,2.759 1.346,2.354 L 3.198,1.296 L 2.899,0.777 L 1.066,1.825 C 0.776,1.99 0.307,2.05 0.02,1.55 C -0.267,1.051 0.024,0.677 0.314,0.511 L 2.148,-0.538 L 1.851,-1.058 L 0,0 z" />
        </g>
      </g>
    </g>
    <g
       transform="matrix(1.25,0,0,-1.25,347.85488,367.98827)"
       id="g6150">
      <path
         id="path6152"
         style="fill:#ffffff;fill-opacity:1;fill-rule:nonzero;stroke:none"
         d="M 0,0 L -0.59,-0.698 L -2.972,0.143 L -1.759,-2.076 L -2.344,-2.767 L -4.914,-0.589 L -4.545,-0.153 L -2.41,-1.961 L -2.404,-1.955 L -3.878,0.635 L -3.607,0.954 L -0.811,-0.074 L -0.805,-0.066 L -2.94,1.741 L -2.57,2.178 L 0,0 z" />
    </g>
    <g
       transform="matrix(1.25,0,0,-1.25,317.39088,376.50914)"
       id="g6154">
      <path
         id="path6156"
         style="fill:#ffffff;fill-opacity:1;fill-rule:nonzero;stroke:none"
         d="M 0,0 L -0.734,-0.453 L -0.984,0 L 0.178,0.634 L 0.687,0.533 L 0.037,-2.771 L -0.523,-2.661 L 0,0 z" />
    </g>
    <g
       transform="matrix(1.25,0,0,-1.25,-733.10536,1173.1023)"
       id="g6158">
      <g
         clip-path="url(#clipPath6162)"
         id="g6160">
        <g
           transform="translate(842.1844,634.8415)"
           id="g6166">
          <path
             id="path6168"
             style="fill:#ffffff;fill-opacity:1;fill-rule:nonzero;stroke:none"
             d="M 0,0 L 1.383,1.186 C 1.549,1.329 1.75,1.503 1.763,1.735 C 1.78,2.011 1.562,2.192 1.3,2.207 C 1.019,2.223 0.81,2.056 0.756,1.782 L 0.16,1.865 C 0.254,2.484 0.725,2.785 1.333,2.748 C 1.937,2.713 2.402,2.374 2.365,1.728 C 2.339,1.306 2.104,1.029 1.787,0.771 L 0.689,-0.131 L 2.247,-0.224 L 2.217,-0.738 L -0.035,-0.604 L 0,0 z" />
        </g>
        <g
           transform="translate(845.3934,634.7115)"
           id="g6170">
          <path
             id="path6172"
             style="fill:#ffffff;fill-opacity:1;fill-rule:nonzero;stroke:none"
             d="M 0,0 L 1.213,1.357 C 1.358,1.519 1.535,1.719 1.52,1.951 C 1.498,2.227 1.257,2.376 0.997,2.357 C 0.719,2.337 0.531,2.142 0.514,1.863 L -0.089,1.869 C -0.076,2.494 0.35,2.855 0.959,2.898 C 1.56,2.942 2.067,2.668 2.114,2.023 C 2.145,1.6 1.947,1.295 1.667,0.998 L 0.699,-0.04 L 2.255,0.072 L 2.293,-0.441 L 0.043,-0.602 L 0,0 z" />
        </g>
        <g
           transform="translate(849.1622,634.5079)"
           id="g6174">
          <path
             id="path6176"
             style="fill:#ffffff;fill-opacity:1;fill-rule:nonzero;stroke:none"
             d="M 0,0 L 0.535,1.388 L 0.526,1.395 C 0.468,1.344 0.34,1.298 0.229,1.274 C -0.353,1.153 -0.865,1.547 -0.986,2.119 C -1.128,2.805 -0.721,3.352 -0.047,3.494 C 0.643,3.637 1.218,3.316 1.363,2.616 C 1.436,2.271 1.368,1.974 1.246,1.648 L 0.68,0.144 L 0,0 z M 0.051,2.959 C -0.28,2.89 -0.493,2.563 -0.425,2.232 C -0.356,1.901 -0.029,1.687 0.303,1.758 C 0.633,1.826 0.847,2.153 0.778,2.484 C 0.709,2.814 0.381,3.028 0.051,2.959" />
        </g>
      </g>
    </g>
    <path
       id="path6178"
       style="fill:#ffffff;fill-opacity:1;fill-rule:nonzero;stroke:none"
       d="M 289.13714,348.71352 L 230.12964,348.71352 L 230.12964,347.48727 L 289.13714,347.48727 L 289.13714,348.71352 z" />
    <path
       id="path6180"
       style="fill:#ffffff;fill-opacity:1;fill-rule:nonzero;stroke:none"
       d="M 289.13714,351.93102 L 230.12964,351.93102 L 230.12964,350.70477 L 289.13714,350.70477 L 289.13714,351.93102 z" />
    <path
       id="path6182"
       style="fill:#ffffff;fill-opacity:1;fill-rule:nonzero;stroke:none"
       d="M 356.62589,348.71352 L 415.63339,348.71352 L 415.63339,347.48727 L 356.62589,347.48727 L 356.62589,348.71352 z" />
    <path
       id="path6184"
       style="fill:#ffffff;fill-opacity:1;fill-rule:nonzero;stroke:none"
       d="M 356.62589,351.93102 L 415.63339,351.93102 L 415.63339,350.70477 L 356.62589,350.70477 L 356.62589,351.93102 z" />
    <g
       transform="matrix(1.25,0,0,-1.25,-733.10536,1173.1023)"
       id="g6186">
      <g
         clip-path="url(#clipPath6190)"
         id="g6188">
        <g
           transform="translate(844.7717,686.2455)"
           id="g6194">
          <path
             id="path6196"
             style="fill:#ffffff;fill-opacity:1;fill-rule:nonzero;stroke:none"
             d="M 0,0 C -15.236,0 -27.588,-12.351 -27.588,-27.588 C -27.588,-42.824 -15.236,-55.176 0,-55.176 C 15.236,-55.176 27.588,-42.824 27.588,-27.588 C 27.588,-12.351 15.236,0 0,0 M 0,-53.95 C -14.559,-53.95 -26.361,-42.147 -26.361,-27.588 C -26.361,-13.029 -14.559,-1.226 0,-1.226 C 14.559,-1.226 26.362,-13.029 26.362,-27.588 C 26.362,-42.147 14.559,-53.95 0,-53.95" />
        </g>
        <g
           transform="translate(844.7717,678.2767)"
           id="g6198">
          <path
             id="path6200"
             style="fill:#ffffff;fill-opacity:1;fill-rule:nonzero;stroke:none"
             d="M 0,0 C -10.835,0 -19.618,-8.784 -19.618,-19.619 C -19.618,-30.454 -10.835,-39.237 0,-39.237 C 10.835,-39.237 19.619,-30.454 19.619,-19.619 C 19.619,-8.784 10.835,0 0,0 M 0,-38.011 C -10.158,-38.011 -18.393,-29.777 -18.393,-19.619 C -18.393,-9.461 -10.158,-1.226 0,-1.226 C 10.159,-1.226 18.393,-9.461 18.393,-19.619 C 18.393,-29.777 10.159,-38.011 0,-38.011" />
        </g>
      </g>
    </g>
  </g>
</svg>
