<svg xmlns="http://www.w3.org/2000/svg"  viewBox="0 0 50 50" width="50px" height="50px"><path d="M 25 3 C 12.346406 3 2 12.598008 2 24.5 C 2 36.401992 12.346406 46 25 46 C 27.775319 46 30.438825 45.539707 32.90625 44.695312 A 1.0001 1.0001 0 0 0 33.28125 43.035156 L 26.351562 36.265625 A 1.0001 1.0001 0 0 0 25.595703 35.984375 C 25.398307 35.995341 25.200735 36 25 36 C 18.93595 36 14 30.88517 14 24.5 C 14 18.11483 18.93595 13 25 13 C 31.06405 13 36 18.11483 36 24.5 C 36 24.700568 35.995598 24.898447 35.986328 25.095703 A 1.0001 1.0001 0 0 0 36.291016 25.861328 L 44.359375 33.658203 A 1.0001 1.0001 0 0 0 45.955078 33.376953 C 47.267254 30.672753 48 27.663204 48 24.5 C 48 12.598008 37.653594 3 25 3 z M 25 5 C 36.646406 5 46 13.757992 46 24.5 C 46 26.851131 45.458763 29.060826 44.638672 31.146484 L 37.994141 24.728516 C 37.995319 24.652153 38 24.576712 38 24.5 C 38 17.07717 32.18995 11 25 11 C 17.81005 11 12 17.07717 12 24.5 C 12 31.92283 17.81005 38 25 38 C 25.08587 38 25.170396 37.993887 25.255859 37.992188 L 30.609375 43.220703 C 28.816059 43.683871 26.955688 44 25 44 C 13.353594 44 4 35.242008 4 24.5 C 4 13.757992 13.353594 5 25 5 z M 22 21 A 1.0001 1.0001 0 0 0 21 22 L 21 27.728516 A 1.0001 1.0001 0 0 0 21.300781 28.443359 L 39.9375 46.714844 A 1.0001 1.0001 0 0 0 40.636719 47 L 47 47 A 1.0001 1.0001 0 0 0 48 46 L 48 40.390625 A 1.0001 1.0001 0 0 0 47.697266 39.671875 L 28.771484 21.283203 A 1.0001 1.0001 0 0 0 28.074219 21 L 22 21 z M 23 23 L 27.667969 23 L 31.785156 27 L 27 27 L 27 31.230469 L 23 27.308594 L 23 23 z M 34.345703 29.490234 L 46 40.8125 L 46 45 L 41.044922 45 L 29.5 33.681641 L 29.5 29.5 L 34.345703 29.490234 z"/></svg>